%TF.GenerationSoftware,KiCad,Pcbnew,(6.0.0-rc1-461-ge5d6ec836f)*%
%TF.CreationDate,2022-01-23T00:53:45+08:00*%
%TF.ProjectId,usb_adapter,7573625f-6164-4617-9074-65722e6b6963,rev?*%
%TF.SameCoordinates,Original*%
%TF.FileFunction,Soldermask,Top*%
%TF.FilePolarity,Negative*%
%FSLAX46Y46*%
G04 Gerber Fmt 4.6, Leading zero omitted, Abs format (unit mm)*
G04 Created by KiCad (PCBNEW (6.0.0-rc1-461-ge5d6ec836f)) date 2022-01-23 00:53:45*
%MOMM*%
%LPD*%
G01*
G04 APERTURE LIST*
G04 Aperture macros list*
%AMRoundRect*
0 Rectangle with rounded corners*
0 $1 Rounding radius*
0 $2 $3 $4 $5 $6 $7 $8 $9 X,Y pos of 4 corners*
0 Add a 4 corners polygon primitive as box body*
4,1,4,$2,$3,$4,$5,$6,$7,$8,$9,$2,$3,0*
0 Add four circle primitives for the rounded corners*
1,1,$1+$1,$2,$3*
1,1,$1+$1,$4,$5*
1,1,$1+$1,$6,$7*
1,1,$1+$1,$8,$9*
0 Add four rect primitives between the rounded corners*
20,1,$1+$1,$2,$3,$4,$5,0*
20,1,$1+$1,$4,$5,$6,$7,0*
20,1,$1+$1,$6,$7,$8,$9,0*
20,1,$1+$1,$8,$9,$2,$3,0*%
%AMFreePoly0*
4,1,22,0.550000,-0.750000,0.000000,-0.750000,0.000000,-0.745033,-0.079941,-0.743568,-0.215256,-0.701293,-0.333266,-0.622738,-0.424486,-0.514219,-0.481581,-0.384460,-0.499164,-0.250000,-0.500000,-0.250000,-0.500000,0.250000,-0.499164,0.250000,-0.499963,0.256109,-0.478152,0.396186,-0.417904,0.524511,-0.324060,0.630769,-0.204165,0.706417,-0.067858,0.745374,0.000000,0.744959,0.000000,0.750000,
0.550000,0.750000,0.550000,-0.750000,0.550000,-0.750000,$1*%
%AMFreePoly1*
4,1,20,0.000000,0.744959,0.073905,0.744508,0.209726,0.703889,0.328688,0.626782,0.421226,0.519385,0.479903,0.390333,0.500000,0.250000,0.500000,-0.250000,0.499851,-0.262216,0.476331,-0.402017,0.414519,-0.529596,0.319384,-0.634700,0.198574,-0.708877,0.061801,-0.746166,0.000000,-0.745033,0.000000,-0.750000,-0.550000,-0.750000,-0.550000,0.750000,0.000000,0.750000,0.000000,0.744959,
0.000000,0.744959,$1*%
%AMFreePoly2*
4,1,22,0.500000,-0.750000,0.000000,-0.750000,0.000000,-0.745033,-0.079941,-0.743568,-0.215256,-0.701293,-0.333266,-0.622738,-0.424486,-0.514219,-0.481581,-0.384460,-0.499164,-0.250000,-0.500000,-0.250000,-0.500000,0.250000,-0.499164,0.250000,-0.499963,0.256109,-0.478152,0.396186,-0.417904,0.524511,-0.324060,0.630769,-0.204165,0.706417,-0.067858,0.745374,0.000000,0.744959,0.000000,0.750000,
0.500000,0.750000,0.500000,-0.750000,0.500000,-0.750000,$1*%
%AMFreePoly3*
4,1,20,0.000000,0.744959,0.073905,0.744508,0.209726,0.703889,0.328688,0.626782,0.421226,0.519385,0.479903,0.390333,0.500000,0.250000,0.500000,-0.250000,0.499851,-0.262216,0.476331,-0.402017,0.414519,-0.529596,0.319384,-0.634700,0.198574,-0.708877,0.061801,-0.746166,0.000000,-0.745033,0.000000,-0.750000,-0.500000,-0.750000,-0.500000,0.750000,0.000000,0.750000,0.000000,0.744959,
0.000000,0.744959,$1*%
G04 Aperture macros list end*
%ADD10R,1.500000X1.500000*%
%ADD11FreePoly0,90.000000*%
%ADD12R,1.500000X1.000000*%
%ADD13FreePoly1,90.000000*%
%ADD14RoundRect,0.237500X-0.237500X0.250000X-0.237500X-0.250000X0.237500X-0.250000X0.237500X0.250000X0*%
%ADD15RoundRect,0.237500X0.237500X-0.250000X0.237500X0.250000X-0.237500X0.250000X-0.237500X-0.250000X0*%
%ADD16R,0.800000X0.300000*%
%ADD17O,2.000000X1.000000*%
%ADD18R,0.250000X0.750000*%
%ADD19FreePoly2,90.000000*%
%ADD20FreePoly3,90.000000*%
%ADD21O,0.550000X0.550000*%
%ADD22R,2.150000X0.400000*%
%ADD23O,1.800000X1.100000*%
G04 APERTURE END LIST*
D10*
%TO.C,SW1*%
X120350000Y-89600000D03*
X128150000Y-89600000D03*
%TD*%
D11*
%TO.C,JP3*%
X115800000Y-91000000D03*
D12*
X115800000Y-89700000D03*
D13*
X115800000Y-88400000D03*
%TD*%
D14*
%TO.C,R2*%
X107742500Y-89237500D03*
X107742500Y-91062500D03*
%TD*%
D15*
%TO.C,R1*%
X109550000Y-91062500D03*
X109550000Y-89237500D03*
%TD*%
D16*
%TO.C,P1*%
X101395000Y-95370000D03*
X101395000Y-94870000D03*
X101395000Y-94370000D03*
X101395000Y-93870000D03*
X101395000Y-93370000D03*
X101395000Y-92870000D03*
X101395000Y-92370000D03*
X101395000Y-91870000D03*
X101395000Y-91370000D03*
X101395000Y-90870000D03*
X101395000Y-90370000D03*
X101395000Y-89870000D03*
X99795000Y-89620000D03*
X99795000Y-90120000D03*
X99795000Y-90620000D03*
X99795000Y-91120000D03*
X99795000Y-91620000D03*
X99795000Y-92120000D03*
X99795000Y-92620000D03*
X99795000Y-93120000D03*
X99795000Y-93620000D03*
X99795000Y-94120000D03*
X99795000Y-94620000D03*
X99795000Y-95120000D03*
D17*
X101395000Y-88800000D03*
X101395000Y-96200000D03*
%TD*%
D18*
%TO.C,U3*%
X113407500Y-88050000D03*
X112907500Y-88050000D03*
X112407500Y-88050000D03*
X111907500Y-88050000D03*
X111907500Y-91150000D03*
X112407500Y-91150000D03*
X112907500Y-91150000D03*
X113407500Y-91150000D03*
%TD*%
D19*
%TO.C,JP1*%
X104250000Y-89675000D03*
D20*
X104250000Y-88375000D03*
%TD*%
D21*
%TO.C,J2*%
X134690000Y-94505000D03*
X134690000Y-90505000D03*
D22*
X133805000Y-93805000D03*
X133805000Y-93155000D03*
X133805000Y-92505000D03*
X133805000Y-91855000D03*
X133805000Y-91205000D03*
D23*
X136840000Y-88905000D03*
X133370000Y-88905000D03*
X136840000Y-96105000D03*
X133370000Y-96105000D03*
%TD*%
M02*
