%TF.GenerationSoftware,KiCad,Pcbnew,(6.0.0-rc1-461-ge5d6ec836f)*%
%TF.CreationDate,2022-01-23T00:53:45+08:00*%
%TF.ProjectId,usb_adapter,7573625f-6164-4617-9074-65722e6b6963,rev?*%
%TF.SameCoordinates,Original*%
%TF.FileFunction,Copper,L1,Top*%
%TF.FilePolarity,Positive*%
%FSLAX46Y46*%
G04 Gerber Fmt 4.6, Leading zero omitted, Abs format (unit mm)*
G04 Created by KiCad (PCBNEW (6.0.0-rc1-461-ge5d6ec836f)) date 2022-01-23 00:53:45*
%MOMM*%
%LPD*%
G01*
G04 APERTURE LIST*
G04 Aperture macros list*
%AMRoundRect*
0 Rectangle with rounded corners*
0 $1 Rounding radius*
0 $2 $3 $4 $5 $6 $7 $8 $9 X,Y pos of 4 corners*
0 Add a 4 corners polygon primitive as box body*
4,1,4,$2,$3,$4,$5,$6,$7,$8,$9,$2,$3,0*
0 Add four circle primitives for the rounded corners*
1,1,$1+$1,$2,$3*
1,1,$1+$1,$4,$5*
1,1,$1+$1,$6,$7*
1,1,$1+$1,$8,$9*
0 Add four rect primitives between the rounded corners*
20,1,$1+$1,$2,$3,$4,$5,0*
20,1,$1+$1,$4,$5,$6,$7,0*
20,1,$1+$1,$6,$7,$8,$9,0*
20,1,$1+$1,$8,$9,$2,$3,0*%
%AMFreePoly0*
4,1,22,0.550000,-0.750000,0.000000,-0.750000,0.000000,-0.745033,-0.079941,-0.743568,-0.215256,-0.701293,-0.333266,-0.622738,-0.424486,-0.514219,-0.481581,-0.384460,-0.499164,-0.250000,-0.500000,-0.250000,-0.500000,0.250000,-0.499164,0.250000,-0.499963,0.256109,-0.478152,0.396186,-0.417904,0.524511,-0.324060,0.630769,-0.204165,0.706417,-0.067858,0.745374,0.000000,0.744959,0.000000,0.750000,
0.550000,0.750000,0.550000,-0.750000,0.550000,-0.750000,$1*%
%AMFreePoly1*
4,1,20,0.000000,0.744959,0.073905,0.744508,0.209726,0.703889,0.328688,0.626782,0.421226,0.519385,0.479903,0.390333,0.500000,0.250000,0.500000,-0.250000,0.499851,-0.262216,0.476331,-0.402017,0.414519,-0.529596,0.319384,-0.634700,0.198574,-0.708877,0.061801,-0.746166,0.000000,-0.745033,0.000000,-0.750000,-0.550000,-0.750000,-0.550000,0.750000,0.000000,0.750000,0.000000,0.744959,
0.000000,0.744959,$1*%
%AMFreePoly2*
4,1,22,0.500000,-0.750000,0.000000,-0.750000,0.000000,-0.745033,-0.079941,-0.743568,-0.215256,-0.701293,-0.333266,-0.622738,-0.424486,-0.514219,-0.481581,-0.384460,-0.499164,-0.250000,-0.500000,-0.250000,-0.500000,0.250000,-0.499164,0.250000,-0.499963,0.256109,-0.478152,0.396186,-0.417904,0.524511,-0.324060,0.630769,-0.204165,0.706417,-0.067858,0.745374,0.000000,0.744959,0.000000,0.750000,
0.500000,0.750000,0.500000,-0.750000,0.500000,-0.750000,$1*%
%AMFreePoly3*
4,1,20,0.000000,0.744959,0.073905,0.744508,0.209726,0.703889,0.328688,0.626782,0.421226,0.519385,0.479903,0.390333,0.500000,0.250000,0.500000,-0.250000,0.499851,-0.262216,0.476331,-0.402017,0.414519,-0.529596,0.319384,-0.634700,0.198574,-0.708877,0.061801,-0.746166,0.000000,-0.745033,0.000000,-0.750000,-0.500000,-0.750000,-0.500000,0.750000,0.000000,0.750000,0.000000,0.744959,
0.000000,0.744959,$1*%
G04 Aperture macros list end*
%TA.AperFunction,SMDPad,CuDef*%
%ADD10R,1.500000X1.500000*%
%TD*%
%TA.AperFunction,SMDPad,CuDef*%
%ADD11FreePoly0,90.000000*%
%TD*%
%TA.AperFunction,SMDPad,CuDef*%
%ADD12R,1.500000X1.000000*%
%TD*%
%TA.AperFunction,SMDPad,CuDef*%
%ADD13FreePoly1,90.000000*%
%TD*%
%TA.AperFunction,SMDPad,CuDef*%
%ADD14RoundRect,0.237500X-0.237500X0.250000X-0.237500X-0.250000X0.237500X-0.250000X0.237500X0.250000X0*%
%TD*%
%TA.AperFunction,SMDPad,CuDef*%
%ADD15RoundRect,0.237500X0.237500X-0.250000X0.237500X0.250000X-0.237500X0.250000X-0.237500X-0.250000X0*%
%TD*%
%TA.AperFunction,SMDPad,CuDef*%
%ADD16R,0.800000X0.300000*%
%TD*%
%TA.AperFunction,ComponentPad*%
%ADD17O,2.000000X1.000000*%
%TD*%
%TA.AperFunction,SMDPad,CuDef*%
%ADD18R,0.250000X0.750000*%
%TD*%
%TA.AperFunction,SMDPad,CuDef*%
%ADD19FreePoly2,90.000000*%
%TD*%
%TA.AperFunction,SMDPad,CuDef*%
%ADD20FreePoly3,90.000000*%
%TD*%
%TA.AperFunction,SMDPad,CuDef*%
%ADD21R,2.150000X0.400000*%
%TD*%
%TA.AperFunction,ComponentPad*%
%ADD22O,1.800000X1.100000*%
%TD*%
%TA.AperFunction,ViaPad*%
%ADD23C,0.450000*%
%TD*%
%TA.AperFunction,Conductor*%
%ADD24C,0.146812*%
%TD*%
%TA.AperFunction,Conductor*%
%ADD25C,0.300000*%
%TD*%
%TA.AperFunction,Conductor*%
%ADD26C,0.250000*%
%TD*%
%TA.AperFunction,Conductor*%
%ADD27C,0.117348*%
%TD*%
G04 APERTURE END LIST*
%TO.C,JP3*%
G36*
X116100000Y-90600000D02*
G01*
X115500000Y-90600000D01*
X115500000Y-90100000D01*
X116100000Y-90100000D01*
X116100000Y-90600000D01*
G37*
%TO.C,JP1*%
G36*
X104550000Y-89275000D02*
G01*
X103950000Y-89275000D01*
X103950000Y-88775000D01*
X104550000Y-88775000D01*
X104550000Y-89275000D01*
G37*
%TD*%
D10*
%TO.P,SW1,1,1*%
%TO.N,/CC*%
X120350000Y-89600000D03*
%TO.P,SW1,2,2*%
%TO.N,GND*%
X128150000Y-89600000D03*
%TD*%
D11*
%TO.P,JP3,1,A*%
%TO.N,+3V3*%
X115800000Y-91000000D03*
D12*
%TO.P,JP3,2,C*%
%TO.N,Net-(JP3-Pad2)*%
X115800000Y-89700000D03*
D13*
%TO.P,JP3,3,B*%
%TO.N,/VBUS*%
X115800000Y-88400000D03*
%TD*%
D14*
%TO.P,R2,1*%
%TO.N,+1V8*%
X107742500Y-89237500D03*
%TO.P,R2,2*%
%TO.N,Net-(R1-Pad1)*%
X107742500Y-91062500D03*
%TD*%
D15*
%TO.P,R1,1*%
%TO.N,Net-(R1-Pad1)*%
X109550000Y-91062500D03*
%TO.P,R1,2*%
%TO.N,GND*%
X109550000Y-89237500D03*
%TD*%
D16*
%TO.P,P1,A1,GND*%
%TO.N,GND*%
X101395000Y-95370000D03*
%TO.P,P1,A2,TX1+*%
%TO.N,unconnected-(P1-PadA2)*%
X101395000Y-94870000D03*
%TO.P,P1,A3,TX1-*%
%TO.N,unconnected-(P1-PadA3)*%
X101395000Y-94370000D03*
%TO.P,P1,A4,VBUS*%
%TO.N,Net-(JP1-Pad1)*%
X101395000Y-93870000D03*
%TO.P,P1,A5,CC*%
%TO.N,/CC*%
X101395000Y-93370000D03*
%TO.P,P1,A6,D+*%
%TO.N,/DP*%
X101395000Y-92870000D03*
%TO.P,P1,A7,D-*%
%TO.N,/DN*%
X101395000Y-92370000D03*
%TO.P,P1,A8,SBU1*%
%TO.N,/TX_1V8*%
X101395000Y-91870000D03*
%TO.P,P1,A9,VBUS*%
%TO.N,Net-(JP1-Pad1)*%
X101395000Y-91370000D03*
%TO.P,P1,A10,RX2-*%
%TO.N,unconnected-(P1-PadA10)*%
X101395000Y-90870000D03*
%TO.P,P1,A11,RX2+*%
%TO.N,unconnected-(P1-PadA11)*%
X101395000Y-90370000D03*
%TO.P,P1,A12,GND*%
%TO.N,GND*%
X101395000Y-89870000D03*
%TO.P,P1,B1,GND*%
X99795000Y-89620000D03*
%TO.P,P1,B2,TX2+*%
%TO.N,unconnected-(P1-PadB2)*%
X99795000Y-90120000D03*
%TO.P,P1,B3,TX2-*%
%TO.N,unconnected-(P1-PadB3)*%
X99795000Y-90620000D03*
%TO.P,P1,B4,VBUS*%
%TO.N,Net-(JP1-Pad1)*%
X99795000Y-91120000D03*
%TO.P,P1,B5,VCONN*%
%TO.N,unconnected-(P1-PadB5)*%
X99795000Y-91620000D03*
%TO.P,P1,B6*%
%TO.N,N/C*%
X99795000Y-92120000D03*
%TO.P,P1,B7*%
X99795000Y-92620000D03*
%TO.P,P1,B8,SBU2*%
%TO.N,/RX_1V8*%
X99795000Y-93120000D03*
%TO.P,P1,B9,VBUS*%
%TO.N,Net-(JP1-Pad1)*%
X99795000Y-93620000D03*
%TO.P,P1,B10,RX1-*%
%TO.N,unconnected-(P1-PadB10)*%
X99795000Y-94120000D03*
%TO.P,P1,B11,RX1+*%
%TO.N,unconnected-(P1-PadB11)*%
X99795000Y-94620000D03*
%TO.P,P1,B12,GND*%
%TO.N,GND*%
X99795000Y-95120000D03*
D17*
%TO.P,P1,S1,SHIELD*%
X101395000Y-88800000D03*
X101395000Y-96200000D03*
%TD*%
D18*
%TO.P,U3,1,B2*%
%TO.N,/RX_3V3*%
X113407500Y-88050000D03*
%TO.P,U3,2,GND*%
%TO.N,GND*%
X112907500Y-88050000D03*
%TO.P,U3,3,VCCA*%
%TO.N,+1V8*%
X112407500Y-88050000D03*
%TO.P,U3,4,A2*%
%TO.N,/RX_1V8*%
X111907500Y-88050000D03*
%TO.P,U3,5,A1*%
%TO.N,/TX_1V8*%
X111907500Y-91150000D03*
%TO.P,U3,6,OE*%
%TO.N,Net-(R1-Pad1)*%
X112407500Y-91150000D03*
%TO.P,U3,7,VCCB*%
%TO.N,Net-(JP3-Pad2)*%
X112907500Y-91150000D03*
%TO.P,U3,8,B1*%
%TO.N,/TX_3V3*%
X113407500Y-91150000D03*
%TD*%
D19*
%TO.P,JP1,1,A*%
%TO.N,Net-(JP1-Pad1)*%
X104250000Y-89675000D03*
D20*
%TO.P,JP1,2,B*%
%TO.N,/VBUS*%
X104250000Y-88375000D03*
%TD*%
D21*
%TO.P,J2,1,VBUS*%
%TO.N,/VBUS*%
X133805000Y-93805000D03*
%TO.P,J2,2,D-*%
%TO.N,/DN*%
X133805000Y-93155000D03*
%TO.P,J2,3,D+*%
%TO.N,/DP*%
X133805000Y-92505000D03*
%TO.P,J2,4,ID*%
%TO.N,unconnected-(J2-Pad4)*%
X133805000Y-91855000D03*
%TO.P,J2,5,GND*%
%TO.N,GND*%
X133805000Y-91205000D03*
D22*
%TO.P,J2,6,Shield*%
X136840000Y-88905000D03*
X133370000Y-88905000D03*
X136840000Y-96105000D03*
X133370000Y-96105000D03*
%TD*%
D23*
%TO.N,/VBUS*%
X116300000Y-88600000D03*
X129850000Y-88100000D03*
X103500000Y-87500000D03*
X115300000Y-88600000D03*
X131100000Y-88700000D03*
X130450000Y-88700000D03*
X131100000Y-87450000D03*
X129850000Y-88700000D03*
X104250000Y-88500000D03*
X104750000Y-88500000D03*
X129850000Y-87450000D03*
X115800000Y-88600000D03*
X103750000Y-88500000D03*
X131100000Y-88100000D03*
X105000000Y-87500000D03*
X130450000Y-87450000D03*
X130450000Y-88100000D03*
X104000000Y-87500000D03*
X104500000Y-87500000D03*
%TO.N,GND*%
X132950000Y-87500000D03*
X133550000Y-87500000D03*
X109000000Y-90112500D03*
X107500000Y-93400000D03*
X121750000Y-89750000D03*
X114500000Y-93500000D03*
X132350000Y-87500000D03*
X113900000Y-93500000D03*
X112750000Y-90050000D03*
X138100000Y-90100000D03*
X126300000Y-90100000D03*
X113300000Y-92900000D03*
X108100000Y-92300000D03*
X123250000Y-91250000D03*
X106900000Y-93400000D03*
X135800000Y-90100000D03*
X113900000Y-92900000D03*
X108700000Y-92300000D03*
X108100000Y-93400000D03*
X122500000Y-89750000D03*
X114500000Y-92900000D03*
X108700000Y-93400000D03*
X137350000Y-90900000D03*
X123250000Y-89750000D03*
X136550000Y-90100000D03*
X106900000Y-92300000D03*
X135800000Y-90900000D03*
X113300000Y-93500000D03*
X133550000Y-90300000D03*
X124000000Y-89750000D03*
X112700000Y-92900000D03*
X132350000Y-90300000D03*
X121750000Y-91250000D03*
X122500000Y-91250000D03*
X132950000Y-90300000D03*
X138100000Y-90900000D03*
X137350000Y-90100000D03*
X136550000Y-90900000D03*
X112700000Y-93500000D03*
X124000000Y-91250000D03*
X107500000Y-92300000D03*
%TO.N,+1V8*%
X105400000Y-92350000D03*
%TO.N,+3V3*%
X111137500Y-92350000D03*
%TO.N,/TX_1V8*%
X109900000Y-92900000D03*
%TO.N,/RX_1V8*%
X100550000Y-92630000D03*
X103900000Y-91850000D03*
%TO.N,/TX_3V3*%
X114620000Y-91150000D03*
%TO.N,/RX_3V3*%
X113880000Y-87340000D03*
%TO.N,/CC*%
X104100000Y-94200000D03*
X114300000Y-94200000D03*
X102090000Y-93370000D03*
X118825000Y-89960000D03*
%TO.N,Net-(JP1-Pad1)*%
X102200000Y-94200000D03*
X104000000Y-90575000D03*
X102200000Y-91300000D03*
X104000000Y-89550000D03*
X100570000Y-91370000D03*
X103475000Y-89550000D03*
X103475000Y-90075000D03*
X104000000Y-90075000D03*
X103475000Y-90575000D03*
X100620000Y-93620000D03*
%TD*%
D24*
%TO.N,Net-(R1-Pad1)*%
X109550000Y-91062500D02*
X110297500Y-91062500D01*
X110297500Y-91062500D02*
X110960000Y-90400000D01*
X110960000Y-90400000D02*
X112130000Y-90400000D01*
X112130000Y-90400000D02*
X112407500Y-90677500D01*
X112407500Y-90677500D02*
X112407500Y-91150000D01*
D25*
%TO.N,GND*%
X99795000Y-95120000D02*
X100420000Y-95120000D01*
X101395000Y-89870000D02*
X101395000Y-88800000D01*
X101395000Y-95370000D02*
X101395000Y-96200000D01*
X100770000Y-89870000D02*
X100520000Y-89620000D01*
X100420000Y-95120000D02*
X100670000Y-95370000D01*
D24*
X112907500Y-89892500D02*
X112907500Y-88050000D01*
D25*
X100520000Y-89620000D02*
X99795000Y-89620000D01*
D24*
X126800000Y-89600000D02*
X126300000Y-90100000D01*
X128150000Y-89600000D02*
X126800000Y-89600000D01*
X109000000Y-89787500D02*
X109000000Y-90112500D01*
D25*
X101395000Y-89870000D02*
X100770000Y-89870000D01*
X100670000Y-95370000D02*
X101395000Y-95370000D01*
D24*
X112750000Y-90050000D02*
X112907500Y-89892500D01*
X109550000Y-89237500D02*
X109000000Y-89787500D01*
D26*
%TO.N,+1V8*%
X105400000Y-92350000D02*
X105400000Y-92300000D01*
X106700000Y-90280000D02*
X107742500Y-89237500D01*
X107742500Y-89207500D02*
X108700000Y-88250000D01*
X105400000Y-92300000D02*
X106700000Y-91000000D01*
X106700000Y-91000000D02*
X106700000Y-90280000D01*
X108700000Y-88250000D02*
X110650000Y-88250000D01*
X112407500Y-88542500D02*
X112407500Y-88050000D01*
X112150000Y-88800000D02*
X112407500Y-88542500D01*
X111200000Y-88800000D02*
X112150000Y-88800000D01*
X110650000Y-88250000D02*
X111200000Y-88800000D01*
%TO.N,+3V3*%
X115800000Y-91700000D02*
X115150000Y-92350000D01*
X115150000Y-92350000D02*
X111137500Y-92350000D01*
X115800000Y-91000000D02*
X115800000Y-91700000D01*
D27*
%TO.N,/DP*%
X136009474Y-94745346D02*
X135259474Y-95495346D01*
X134895526Y-92720526D02*
X135475346Y-92720526D01*
X135259474Y-96945346D02*
X134695346Y-97509474D01*
X135475346Y-92720526D02*
X136009474Y-93254654D01*
X128034654Y-97509474D02*
X126604654Y-96079474D01*
X101995001Y-92870000D02*
X101395000Y-92870000D01*
X102135527Y-92729474D02*
X101995001Y-92870000D01*
X136009474Y-93254654D02*
X136009474Y-94745346D01*
X135259474Y-95495346D02*
X135259474Y-96945346D01*
X103060526Y-94935346D02*
X103060526Y-93125346D01*
X104204654Y-96079474D02*
X103060526Y-94935346D01*
X134680000Y-92505000D02*
X134895526Y-92720526D01*
X126604654Y-96079474D02*
X104204654Y-96079474D01*
X134695346Y-97509474D02*
X128034654Y-97509474D01*
X103060526Y-93125346D02*
X102664654Y-92729474D01*
X102664654Y-92729474D02*
X102135527Y-92729474D01*
%TO.N,/DN*%
X135790526Y-94654654D02*
X135040526Y-95404654D01*
X134680000Y-93155000D02*
X134895526Y-92939474D01*
X135040526Y-96854654D02*
X134604654Y-97290526D01*
X135040526Y-95404654D02*
X135040526Y-96854654D01*
X135790526Y-93345346D02*
X135790526Y-94654654D01*
X134895526Y-92939474D02*
X135384654Y-92939474D01*
X102755346Y-92510526D02*
X102135527Y-92510526D01*
X126695346Y-95860526D02*
X104295346Y-95860526D01*
X128125346Y-97290526D02*
X126695346Y-95860526D01*
X134604654Y-97290526D02*
X128125346Y-97290526D01*
X135384654Y-92939474D02*
X135790526Y-93345346D01*
X102135527Y-92510526D02*
X101995001Y-92370000D01*
X101995001Y-92370000D02*
X101395000Y-92370000D01*
X103279474Y-93034654D02*
X102755346Y-92510526D01*
X104295346Y-95860526D02*
X103279474Y-94844654D01*
X103279474Y-94844654D02*
X103279474Y-93034654D01*
D24*
%TO.N,/TX_1V8*%
X102970000Y-91870000D02*
X101395000Y-91870000D01*
X111050000Y-91150000D02*
X111907500Y-91150000D01*
X109900000Y-92900000D02*
X109900000Y-92300000D01*
X109900000Y-92300000D02*
X111050000Y-91150000D01*
X109900000Y-92900000D02*
X104000000Y-92900000D01*
X104000000Y-92900000D02*
X102970000Y-91870000D01*
%TO.N,/RX_1V8*%
X100550000Y-92630000D02*
X100550000Y-92990000D01*
X111600000Y-87500000D02*
X111907500Y-87807500D01*
X107250000Y-87500000D02*
X111600000Y-87500000D01*
X100420000Y-93120000D02*
X99795000Y-93120000D01*
X106100000Y-88650000D02*
X107250000Y-87500000D01*
X100550000Y-92990000D02*
X100420000Y-93120000D01*
X103900000Y-91850000D02*
X104700000Y-91850000D01*
X104700000Y-91850000D02*
X106100000Y-90450000D01*
X106100000Y-90450000D02*
X106100000Y-88650000D01*
%TO.N,/TX_3V3*%
X114620000Y-91150000D02*
X113407500Y-91150000D01*
%TO.N,/RX_3V3*%
X113870000Y-87340000D02*
X113407500Y-87802500D01*
X113880000Y-87340000D02*
X113870000Y-87340000D01*
D26*
%TO.N,Net-(JP3-Pad2)*%
X115857500Y-89700000D02*
X113850000Y-89700000D01*
X112907500Y-90642500D02*
X112907500Y-91150000D01*
X113850000Y-89700000D02*
X112907500Y-90642500D01*
D24*
%TO.N,Net-(R1-Pad1)*%
X107742500Y-91062500D02*
X109550000Y-91062500D01*
%TO.N,/CC*%
X119185000Y-89600000D02*
X118825000Y-89960000D01*
X104100000Y-94200000D02*
X114300000Y-94200000D01*
X102090000Y-93370000D02*
X101395000Y-93370000D01*
X120350000Y-89600000D02*
X119185000Y-89600000D01*
X118825000Y-91195000D02*
X118825000Y-89960000D01*
X114300000Y-94200000D02*
X115820000Y-94200000D01*
X115820000Y-94200000D02*
X118825000Y-91195000D01*
D25*
%TO.N,Net-(JP1-Pad1)*%
X102130000Y-91370000D02*
X102200000Y-91300000D01*
X100870000Y-93870000D02*
X101395000Y-93870000D01*
X100620000Y-93620000D02*
X100870000Y-93870000D01*
X100570000Y-91370000D02*
X101395000Y-91370000D01*
X102200000Y-94200000D02*
X101870000Y-93870000D01*
X99795000Y-93620000D02*
X100620000Y-93620000D01*
X101395000Y-91370000D02*
X102130000Y-91370000D01*
X100320000Y-91120000D02*
X100570000Y-91370000D01*
X99795000Y-91120000D02*
X100320000Y-91120000D01*
X101870000Y-93870000D02*
X101395000Y-93870000D01*
%TD*%
%TA.AperFunction,Conductor*%
%TO.N,GND*%
G36*
X102842132Y-86774002D02*
G01*
X102888625Y-86827658D01*
X102900011Y-86879989D01*
X102900273Y-89898986D01*
X102880277Y-89967109D01*
X102826625Y-90013606D01*
X102774273Y-90024997D01*
X101999469Y-90024998D01*
X101929468Y-90003763D01*
X101904623Y-89987162D01*
X101904619Y-89987160D01*
X101894301Y-89980266D01*
X101820067Y-89965500D01*
X101395069Y-89965500D01*
X100969934Y-89965501D01*
X100895699Y-89980266D01*
X100885379Y-89987161D01*
X100885378Y-89987162D01*
X100860531Y-90003764D01*
X100790528Y-90025000D01*
X100752190Y-90025000D01*
X100684069Y-90004998D01*
X100663095Y-89988095D01*
X100450000Y-89775000D01*
X100399472Y-89775000D01*
X100329469Y-89753764D01*
X100304621Y-89737161D01*
X100304618Y-89737160D01*
X100294301Y-89730266D01*
X100282132Y-89727845D01*
X100282131Y-89727845D01*
X100226135Y-89716707D01*
X100220067Y-89715500D01*
X99896448Y-89715500D01*
X99380000Y-89715501D01*
X99311879Y-89695499D01*
X99265386Y-89641843D01*
X99254000Y-89589501D01*
X99254000Y-88945722D01*
X100154963Y-88945722D01*
X100165513Y-89007119D01*
X100169619Y-89021070D01*
X100232729Y-89169387D01*
X100239929Y-89182012D01*
X100335467Y-89311833D01*
X100345381Y-89322464D01*
X100468225Y-89426828D01*
X100480313Y-89434890D01*
X100623871Y-89508195D01*
X100637496Y-89513262D01*
X100795716Y-89551977D01*
X100806775Y-89553660D01*
X100810321Y-89553880D01*
X100814199Y-89554000D01*
X101249885Y-89554000D01*
X101265124Y-89549525D01*
X101266329Y-89548135D01*
X101268000Y-89540452D01*
X101268000Y-89535885D01*
X101522000Y-89535885D01*
X101526475Y-89551124D01*
X101527865Y-89552329D01*
X101535548Y-89554000D01*
X101935363Y-89554000D01*
X101942667Y-89553575D01*
X102062366Y-89539620D01*
X102076519Y-89536275D01*
X102228030Y-89481279D01*
X102241029Y-89474769D01*
X102375826Y-89386392D01*
X102386978Y-89377068D01*
X102497828Y-89260053D01*
X102506540Y-89248408D01*
X102587494Y-89109035D01*
X102593292Y-89095700D01*
X102640014Y-88941433D01*
X102640292Y-88939887D01*
X102637982Y-88929730D01*
X102627073Y-88927000D01*
X101540115Y-88927000D01*
X101524876Y-88931475D01*
X101523671Y-88932865D01*
X101522000Y-88940548D01*
X101522000Y-89535885D01*
X101268000Y-89535885D01*
X101268000Y-88945115D01*
X101263525Y-88929876D01*
X101262135Y-88928671D01*
X101254452Y-88927000D01*
X100169861Y-88927000D01*
X100156899Y-88930806D01*
X100154963Y-88945722D01*
X99254000Y-88945722D01*
X99254000Y-88660113D01*
X100149708Y-88660113D01*
X100152018Y-88670270D01*
X100162927Y-88673000D01*
X101249885Y-88673000D01*
X101265124Y-88668525D01*
X101266329Y-88667135D01*
X101268000Y-88659452D01*
X101268000Y-88654885D01*
X101522000Y-88654885D01*
X101526475Y-88670124D01*
X101527865Y-88671329D01*
X101535548Y-88673000D01*
X102620139Y-88673000D01*
X102633101Y-88669194D01*
X102635037Y-88654278D01*
X102624487Y-88592881D01*
X102620381Y-88578930D01*
X102557271Y-88430613D01*
X102550071Y-88417988D01*
X102454533Y-88288167D01*
X102444619Y-88277536D01*
X102321775Y-88173172D01*
X102309687Y-88165110D01*
X102166129Y-88091805D01*
X102152504Y-88086738D01*
X101994284Y-88048023D01*
X101983225Y-88046340D01*
X101979679Y-88046120D01*
X101975801Y-88046000D01*
X101540115Y-88046000D01*
X101524876Y-88050475D01*
X101523671Y-88051865D01*
X101522000Y-88059548D01*
X101522000Y-88654885D01*
X101268000Y-88654885D01*
X101268000Y-88064115D01*
X101263525Y-88048876D01*
X101262135Y-88047671D01*
X101254452Y-88046000D01*
X100854637Y-88046000D01*
X100847333Y-88046425D01*
X100727634Y-88060380D01*
X100713481Y-88063725D01*
X100561970Y-88118721D01*
X100548971Y-88125231D01*
X100414174Y-88213608D01*
X100403022Y-88222932D01*
X100292172Y-88339947D01*
X100283460Y-88351592D01*
X100202506Y-88490965D01*
X100196708Y-88504300D01*
X100149986Y-88658567D01*
X100149708Y-88660113D01*
X99254000Y-88660113D01*
X99254000Y-88055682D01*
X99274002Y-87987561D01*
X99299337Y-87958886D01*
X100710155Y-86783204D01*
X100775292Y-86754960D01*
X100790818Y-86754000D01*
X102774011Y-86754000D01*
X102842132Y-86774002D01*
G37*
%TD.AperFunction*%
%TD*%
%TA.AperFunction,Conductor*%
%TO.N,Net-(JP1-Pad1)*%
G36*
X105242121Y-89220002D02*
G01*
X105288614Y-89273658D01*
X105300000Y-89326000D01*
X105300000Y-90734081D01*
X105279998Y-90802202D01*
X105263095Y-90823176D01*
X105223176Y-90863095D01*
X105160864Y-90897121D01*
X105134081Y-90900000D01*
X103326000Y-90900000D01*
X103257879Y-90879998D01*
X103211386Y-90826342D01*
X103200000Y-90774000D01*
X103200000Y-89326000D01*
X103220002Y-89257879D01*
X103273658Y-89211386D01*
X103326000Y-89200000D01*
X105174000Y-89200000D01*
X105242121Y-89220002D01*
G37*
%TD.AperFunction*%
%TD*%
%TA.AperFunction,Conductor*%
%TO.N,/VBUS*%
G36*
X105242121Y-87120002D02*
G01*
X105288614Y-87173658D01*
X105300000Y-87226000D01*
X105300000Y-88674000D01*
X105279998Y-88742121D01*
X105226342Y-88788614D01*
X105174000Y-88800000D01*
X103326000Y-88800000D01*
X103257879Y-88779998D01*
X103211386Y-88726342D01*
X103200000Y-88674000D01*
X103200000Y-87226000D01*
X103220002Y-87157879D01*
X103273658Y-87111386D01*
X103326000Y-87100000D01*
X105174000Y-87100000D01*
X105242121Y-87120002D01*
G37*
%TD.AperFunction*%
%TD*%
%TA.AperFunction,Conductor*%
%TO.N,GND*%
G36*
X100490972Y-94995002D02*
G01*
X100511895Y-95011853D01*
X100523346Y-95023291D01*
X100725287Y-95225000D01*
X100735948Y-95225000D01*
X100745645Y-95230288D01*
X100795875Y-95280462D01*
X100811006Y-95349827D01*
X100786233Y-95416362D01*
X100729422Y-95458941D01*
X100714300Y-95463532D01*
X100713482Y-95463725D01*
X100561970Y-95518721D01*
X100548971Y-95525231D01*
X100414174Y-95613608D01*
X100403022Y-95622932D01*
X100292172Y-95739947D01*
X100283460Y-95751592D01*
X100202506Y-95890965D01*
X100196708Y-95904300D01*
X100149986Y-96058567D01*
X100149708Y-96060113D01*
X100152018Y-96070270D01*
X100162927Y-96073000D01*
X102620139Y-96073000D01*
X102633101Y-96069194D01*
X102635037Y-96054278D01*
X102624487Y-95992881D01*
X102620381Y-95978930D01*
X102557271Y-95830613D01*
X102550071Y-95817988D01*
X102454533Y-95688167D01*
X102444619Y-95677536D01*
X102321775Y-95573172D01*
X102309687Y-95565110D01*
X102166129Y-95491805D01*
X102152504Y-95486738D01*
X102097949Y-95473389D01*
X102036534Y-95437769D01*
X102004127Y-95374600D01*
X102011016Y-95303939D01*
X102055013Y-95248219D01*
X102127897Y-95225000D01*
X102774000Y-95225000D01*
X102842121Y-95245002D01*
X102888614Y-95298658D01*
X102900000Y-95351000D01*
X102900000Y-98120000D01*
X102879998Y-98188121D01*
X102826342Y-98234614D01*
X102774000Y-98246000D01*
X100798190Y-98246000D01*
X100730069Y-98225998D01*
X100709095Y-98209095D01*
X99290905Y-96790905D01*
X99256879Y-96728593D01*
X99254000Y-96701810D01*
X99254000Y-96345722D01*
X100154963Y-96345722D01*
X100165513Y-96407119D01*
X100169619Y-96421070D01*
X100232729Y-96569387D01*
X100239929Y-96582012D01*
X100335467Y-96711833D01*
X100345381Y-96722464D01*
X100468225Y-96826828D01*
X100480313Y-96834890D01*
X100623871Y-96908195D01*
X100637496Y-96913262D01*
X100795716Y-96951977D01*
X100806775Y-96953660D01*
X100810321Y-96953880D01*
X100814199Y-96954000D01*
X101249885Y-96954000D01*
X101265124Y-96949525D01*
X101266329Y-96948135D01*
X101268000Y-96940452D01*
X101268000Y-96935885D01*
X101522000Y-96935885D01*
X101526475Y-96951124D01*
X101527865Y-96952329D01*
X101535548Y-96954000D01*
X101935363Y-96954000D01*
X101942667Y-96953575D01*
X102062366Y-96939620D01*
X102076519Y-96936275D01*
X102228030Y-96881279D01*
X102241029Y-96874769D01*
X102375826Y-96786392D01*
X102386978Y-96777068D01*
X102497828Y-96660053D01*
X102506540Y-96648408D01*
X102587494Y-96509035D01*
X102593292Y-96495700D01*
X102640014Y-96341433D01*
X102640292Y-96339887D01*
X102637982Y-96329730D01*
X102627073Y-96327000D01*
X101540115Y-96327000D01*
X101524876Y-96331475D01*
X101523671Y-96332865D01*
X101522000Y-96340548D01*
X101522000Y-96935885D01*
X101268000Y-96935885D01*
X101268000Y-96345115D01*
X101263525Y-96329876D01*
X101262135Y-96328671D01*
X101254452Y-96327000D01*
X100169861Y-96327000D01*
X100156899Y-96330806D01*
X100154963Y-96345722D01*
X99254000Y-96345722D01*
X99254000Y-95150500D01*
X99274002Y-95082379D01*
X99327658Y-95035886D01*
X99380000Y-95024500D01*
X99896403Y-95024499D01*
X100220066Y-95024499D01*
X100255818Y-95017388D01*
X100282126Y-95012156D01*
X100282128Y-95012155D01*
X100294301Y-95009734D01*
X100314504Y-94996235D01*
X100384505Y-94975000D01*
X100422851Y-94975000D01*
X100490972Y-94995002D01*
G37*
%TD.AperFunction*%
%TD*%
%TA.AperFunction,Conductor*%
%TO.N,GND*%
G36*
X137440605Y-86774002D02*
G01*
X137466139Y-86795710D01*
X138713655Y-88181839D01*
X138744358Y-88245854D01*
X138746000Y-88266129D01*
X138746000Y-91199850D01*
X138725998Y-91267971D01*
X138672342Y-91314464D01*
X138619892Y-91325850D01*
X133205381Y-91321115D01*
X132055890Y-91320110D01*
X131987787Y-91300048D01*
X131941341Y-91246352D01*
X131930000Y-91194110D01*
X131930000Y-90505000D01*
X134155931Y-90505000D01*
X134174129Y-90643227D01*
X134227483Y-90772034D01*
X134312356Y-90882644D01*
X134422965Y-90967517D01*
X134551773Y-91020871D01*
X134690000Y-91039069D01*
X134698188Y-91037991D01*
X134820039Y-91021949D01*
X134828227Y-91020871D01*
X134957035Y-90967517D01*
X135067644Y-90882644D01*
X135152517Y-90772034D01*
X135205871Y-90643227D01*
X135224069Y-90505000D01*
X135205871Y-90366773D01*
X135152517Y-90237966D01*
X135067644Y-90127356D01*
X134957035Y-90042483D01*
X134828227Y-89989129D01*
X134690000Y-89970931D01*
X134551773Y-89989129D01*
X134422966Y-90042483D01*
X134312356Y-90127356D01*
X134227483Y-90237966D01*
X134174129Y-90366773D01*
X134155931Y-90505000D01*
X131930000Y-90505000D01*
X131930000Y-89048798D01*
X132226640Y-89048798D01*
X132229051Y-89071735D01*
X132232056Y-89085406D01*
X132285646Y-89242825D01*
X132291607Y-89255491D01*
X132378740Y-89397124D01*
X132387360Y-89408158D01*
X132503701Y-89526961D01*
X132514560Y-89535818D01*
X132654324Y-89625889D01*
X132666877Y-89632121D01*
X132823127Y-89688991D01*
X132836742Y-89692284D01*
X132965130Y-89708503D01*
X132973020Y-89709000D01*
X133224885Y-89709000D01*
X133240124Y-89704525D01*
X133241329Y-89703135D01*
X133243000Y-89695452D01*
X133243000Y-89690885D01*
X133497000Y-89690885D01*
X133501475Y-89706124D01*
X133502865Y-89707329D01*
X133510548Y-89709000D01*
X133761828Y-89709000D01*
X133768852Y-89708607D01*
X133892253Y-89694766D01*
X133905906Y-89691664D01*
X134062938Y-89636979D01*
X134075571Y-89630926D01*
X134216589Y-89542809D01*
X134227561Y-89534112D01*
X134345555Y-89416940D01*
X134354327Y-89406029D01*
X134443425Y-89265634D01*
X134449568Y-89253038D01*
X134505348Y-89096391D01*
X134508544Y-89082765D01*
X134512452Y-89049989D01*
X134512251Y-89048798D01*
X135696640Y-89048798D01*
X135699051Y-89071735D01*
X135702056Y-89085406D01*
X135755646Y-89242825D01*
X135761607Y-89255491D01*
X135848740Y-89397124D01*
X135857360Y-89408158D01*
X135973701Y-89526961D01*
X135984560Y-89535818D01*
X136124324Y-89625889D01*
X136136877Y-89632121D01*
X136293127Y-89688991D01*
X136306742Y-89692284D01*
X136435130Y-89708503D01*
X136443020Y-89709000D01*
X136694885Y-89709000D01*
X136710124Y-89704525D01*
X136711329Y-89703135D01*
X136713000Y-89695452D01*
X136713000Y-89690885D01*
X136967000Y-89690885D01*
X136971475Y-89706124D01*
X136972865Y-89707329D01*
X136980548Y-89709000D01*
X137231828Y-89709000D01*
X137238852Y-89708607D01*
X137362253Y-89694766D01*
X137375906Y-89691664D01*
X137532938Y-89636979D01*
X137545571Y-89630926D01*
X137686589Y-89542809D01*
X137697561Y-89534112D01*
X137815555Y-89416940D01*
X137824327Y-89406029D01*
X137913425Y-89265634D01*
X137919568Y-89253038D01*
X137975348Y-89096391D01*
X137978544Y-89082765D01*
X137982452Y-89049989D01*
X137980025Y-89035582D01*
X137967257Y-89032000D01*
X136985115Y-89032000D01*
X136969876Y-89036475D01*
X136968671Y-89037865D01*
X136967000Y-89045548D01*
X136967000Y-89690885D01*
X136713000Y-89690885D01*
X136713000Y-89050115D01*
X136708525Y-89034876D01*
X136707135Y-89033671D01*
X136699452Y-89032000D01*
X135712990Y-89032000D01*
X135698698Y-89036197D01*
X135696640Y-89048798D01*
X134512251Y-89048798D01*
X134510025Y-89035582D01*
X134497257Y-89032000D01*
X133515115Y-89032000D01*
X133499876Y-89036475D01*
X133498671Y-89037865D01*
X133497000Y-89045548D01*
X133497000Y-89690885D01*
X133243000Y-89690885D01*
X133243000Y-89050115D01*
X133238525Y-89034876D01*
X133237135Y-89033671D01*
X133229452Y-89032000D01*
X132242990Y-89032000D01*
X132228698Y-89036197D01*
X132226640Y-89048798D01*
X131930000Y-89048798D01*
X131930000Y-88760011D01*
X132227548Y-88760011D01*
X132229975Y-88774418D01*
X132242743Y-88778000D01*
X133224885Y-88778000D01*
X133240124Y-88773525D01*
X133241329Y-88772135D01*
X133243000Y-88764452D01*
X133243000Y-88759885D01*
X133497000Y-88759885D01*
X133501475Y-88775124D01*
X133502865Y-88776329D01*
X133510548Y-88778000D01*
X134497010Y-88778000D01*
X134511302Y-88773803D01*
X134513360Y-88761202D01*
X134513235Y-88760011D01*
X135697548Y-88760011D01*
X135699975Y-88774418D01*
X135712743Y-88778000D01*
X136694885Y-88778000D01*
X136710124Y-88773525D01*
X136711329Y-88772135D01*
X136713000Y-88764452D01*
X136713000Y-88759885D01*
X136967000Y-88759885D01*
X136971475Y-88775124D01*
X136972865Y-88776329D01*
X136980548Y-88778000D01*
X137967010Y-88778000D01*
X137981302Y-88773803D01*
X137983360Y-88761202D01*
X137980949Y-88738265D01*
X137977944Y-88724594D01*
X137924354Y-88567175D01*
X137918393Y-88554509D01*
X137831260Y-88412876D01*
X137822640Y-88401842D01*
X137706299Y-88283039D01*
X137695440Y-88274182D01*
X137555676Y-88184111D01*
X137543123Y-88177879D01*
X137386873Y-88121009D01*
X137373258Y-88117716D01*
X137244870Y-88101497D01*
X137236980Y-88101000D01*
X136985115Y-88101000D01*
X136969876Y-88105475D01*
X136968671Y-88106865D01*
X136967000Y-88114548D01*
X136967000Y-88759885D01*
X136713000Y-88759885D01*
X136713000Y-88119115D01*
X136708525Y-88103876D01*
X136707135Y-88102671D01*
X136699452Y-88101000D01*
X136448172Y-88101000D01*
X136441148Y-88101393D01*
X136317747Y-88115234D01*
X136304094Y-88118336D01*
X136147062Y-88173021D01*
X136134429Y-88179074D01*
X135993411Y-88267191D01*
X135982439Y-88275888D01*
X135864445Y-88393060D01*
X135855673Y-88403971D01*
X135766575Y-88544366D01*
X135760432Y-88556962D01*
X135704652Y-88713609D01*
X135701456Y-88727235D01*
X135697548Y-88760011D01*
X134513235Y-88760011D01*
X134510949Y-88738265D01*
X134507944Y-88724594D01*
X134454354Y-88567175D01*
X134448393Y-88554509D01*
X134361260Y-88412876D01*
X134352640Y-88401842D01*
X134236299Y-88283039D01*
X134225440Y-88274182D01*
X134085676Y-88184111D01*
X134073123Y-88177879D01*
X133916873Y-88121009D01*
X133903258Y-88117716D01*
X133774870Y-88101497D01*
X133766980Y-88101000D01*
X133515115Y-88101000D01*
X133499876Y-88105475D01*
X133498671Y-88106865D01*
X133497000Y-88114548D01*
X133497000Y-88759885D01*
X133243000Y-88759885D01*
X133243000Y-88119115D01*
X133238525Y-88103876D01*
X133237135Y-88102671D01*
X133229452Y-88101000D01*
X132978172Y-88101000D01*
X132971148Y-88101393D01*
X132847747Y-88115234D01*
X132834094Y-88118336D01*
X132677062Y-88173021D01*
X132664429Y-88179074D01*
X132523411Y-88267191D01*
X132512439Y-88275888D01*
X132394445Y-88393060D01*
X132385673Y-88403971D01*
X132296575Y-88544366D01*
X132290432Y-88556962D01*
X132234652Y-88713609D01*
X132231456Y-88727235D01*
X132227548Y-88760011D01*
X131930000Y-88760011D01*
X131930000Y-86880000D01*
X131950002Y-86811879D01*
X132003658Y-86765386D01*
X132056000Y-86754000D01*
X137372484Y-86754000D01*
X137440605Y-86774002D01*
G37*
%TD.AperFunction*%
%TD*%
%TA.AperFunction,Conductor*%
%TO.N,/VBUS*%
G36*
X131442121Y-87120002D02*
G01*
X131488614Y-87173658D01*
X131500000Y-87226000D01*
X131500000Y-93000000D01*
X132050000Y-93600000D01*
X132644763Y-93600000D01*
X132669345Y-93602421D01*
X132704933Y-93609500D01*
X132804109Y-93609500D01*
X134774000Y-93609499D01*
X134842121Y-93629501D01*
X134888614Y-93683157D01*
X134900000Y-93735499D01*
X134900000Y-93854903D01*
X134879998Y-93923024D01*
X134826342Y-93969517D01*
X134757555Y-93979825D01*
X134690000Y-93970931D01*
X134551773Y-93989129D01*
X134422966Y-94042483D01*
X134312356Y-94127356D01*
X134227483Y-94237966D01*
X134174129Y-94366773D01*
X134155931Y-94505000D01*
X134174129Y-94643227D01*
X134227483Y-94772034D01*
X134232512Y-94778588D01*
X134281070Y-94841871D01*
X134306670Y-94908091D01*
X134292405Y-94977640D01*
X134237456Y-95031272D01*
X133926604Y-95186698D01*
X133870255Y-95200000D01*
X131003447Y-95200000D01*
X130935326Y-95179998D01*
X130912854Y-95161573D01*
X129535407Y-93736628D01*
X129502443Y-93673748D01*
X129500000Y-93649055D01*
X129500000Y-87226000D01*
X129520002Y-87157879D01*
X129573658Y-87111386D01*
X129626000Y-87100000D01*
X131374000Y-87100000D01*
X131442121Y-87120002D01*
G37*
%TD.AperFunction*%
%TD*%
M02*
