%TF.GenerationSoftware,KiCad,Pcbnew,(6.0.0-rc1-461-ge5d6ec836f)*%
%TF.CreationDate,2022-01-23T00:53:45+08:00*%
%TF.ProjectId,usb_adapter,7573625f-6164-4617-9074-65722e6b6963,rev?*%
%TF.SameCoordinates,Original*%
%TF.FileFunction,Legend,Bot*%
%TF.FilePolarity,Positive*%
%FSLAX46Y46*%
G04 Gerber Fmt 4.6, Leading zero omitted, Abs format (unit mm)*
G04 Created by KiCad (PCBNEW (6.0.0-rc1-461-ge5d6ec836f)) date 2022-01-23 00:53:45*
%MOMM*%
%LPD*%
G01*
G04 APERTURE LIST*
%ADD10C,0.150000*%
%ADD11C,0.120000*%
G04 APERTURE END LIST*
D10*
X129261904Y-96952380D02*
X128690476Y-96952380D01*
X128976190Y-97952380D02*
X128976190Y-96952380D01*
X128452380Y-96952380D02*
X127785714Y-97952380D01*
X127785714Y-96952380D02*
X128452380Y-97952380D01*
X128761904Y-87000000D02*
X128857142Y-86952380D01*
X129000000Y-86952380D01*
X129142857Y-87000000D01*
X129238095Y-87095238D01*
X129285714Y-87190476D01*
X129333333Y-87380952D01*
X129333333Y-87523809D01*
X129285714Y-87714285D01*
X129238095Y-87809523D01*
X129142857Y-87904761D01*
X129000000Y-87952380D01*
X128904761Y-87952380D01*
X128761904Y-87904761D01*
X128714285Y-87857142D01*
X128714285Y-87523809D01*
X128904761Y-87523809D01*
X128285714Y-87952380D02*
X128285714Y-86952380D01*
X127714285Y-87952380D01*
X127714285Y-86952380D01*
X127238095Y-87952380D02*
X127238095Y-86952380D01*
X127000000Y-86952380D01*
X126857142Y-87000000D01*
X126761904Y-87095238D01*
X126714285Y-87190476D01*
X126666666Y-87380952D01*
X126666666Y-87523809D01*
X126714285Y-87714285D01*
X126761904Y-87809523D01*
X126857142Y-87904761D01*
X127000000Y-87952380D01*
X127238095Y-87952380D01*
X128666666Y-95452380D02*
X129000000Y-94976190D01*
X129238095Y-95452380D02*
X129238095Y-94452380D01*
X128857142Y-94452380D01*
X128761904Y-94500000D01*
X128714285Y-94547619D01*
X128666666Y-94642857D01*
X128666666Y-94785714D01*
X128714285Y-94880952D01*
X128761904Y-94928571D01*
X128857142Y-94976190D01*
X129238095Y-94976190D01*
X128333333Y-94452380D02*
X127666666Y-95452380D01*
X127666666Y-94452380D02*
X128333333Y-95452380D01*
X128761904Y-92000000D02*
X128857142Y-91952380D01*
X129000000Y-91952380D01*
X129142857Y-92000000D01*
X129238095Y-92095238D01*
X129285714Y-92190476D01*
X129333333Y-92380952D01*
X129333333Y-92523809D01*
X129285714Y-92714285D01*
X129238095Y-92809523D01*
X129142857Y-92904761D01*
X129000000Y-92952380D01*
X128904761Y-92952380D01*
X128761904Y-92904761D01*
X128714285Y-92857142D01*
X128714285Y-92523809D01*
X128904761Y-92523809D01*
X128285714Y-92952380D02*
X128285714Y-91952380D01*
X127714285Y-92952380D01*
X127714285Y-91952380D01*
X127238095Y-92952380D02*
X127238095Y-91952380D01*
X127000000Y-91952380D01*
X126857142Y-92000000D01*
X126761904Y-92095238D01*
X126714285Y-92190476D01*
X126666666Y-92380952D01*
X126666666Y-92523809D01*
X126714285Y-92714285D01*
X126761904Y-92809523D01*
X126857142Y-92904761D01*
X127000000Y-92952380D01*
X127238095Y-92952380D01*
X128642857Y-90452380D02*
X128976190Y-89976190D01*
X129214285Y-90452380D02*
X129214285Y-89452380D01*
X128833333Y-89452380D01*
X128738095Y-89500000D01*
X128690476Y-89547619D01*
X128642857Y-89642857D01*
X128642857Y-89785714D01*
X128690476Y-89880952D01*
X128738095Y-89928571D01*
X128833333Y-89976190D01*
X129214285Y-89976190D01*
X128214285Y-89928571D02*
X127880952Y-89928571D01*
X127738095Y-90452380D02*
X128214285Y-90452380D01*
X128214285Y-89452380D01*
X127738095Y-89452380D01*
X126738095Y-90357142D02*
X126785714Y-90404761D01*
X126928571Y-90452380D01*
X127023809Y-90452380D01*
X127166666Y-90404761D01*
X127261904Y-90309523D01*
X127309523Y-90214285D01*
X127357142Y-90023809D01*
X127357142Y-89880952D01*
X127309523Y-89690476D01*
X127261904Y-89595238D01*
X127166666Y-89500000D01*
X127023809Y-89452380D01*
X126928571Y-89452380D01*
X126785714Y-89500000D01*
X126738095Y-89547619D01*
%TO.C,J1*%
X123853333Y-99502380D02*
X123853333Y-100216666D01*
X123900952Y-100359523D01*
X123996190Y-100454761D01*
X124139047Y-100502380D01*
X124234285Y-100502380D01*
X122853333Y-100502380D02*
X123424761Y-100502380D01*
X123139047Y-100502380D02*
X123139047Y-99502380D01*
X123234285Y-99645238D01*
X123329523Y-99740476D01*
X123424761Y-99788095D01*
D11*
%TO.C,U2*%
X113560000Y-89500000D02*
X113560000Y-88850000D01*
X110440000Y-89500000D02*
X110440000Y-90150000D01*
X113560000Y-89500000D02*
X113560000Y-91175000D01*
X110440000Y-89500000D02*
X110440000Y-88850000D01*
%TO.C,TP2*%
X106450000Y-96750000D02*
G75*
G03*
X106450000Y-96750000I-950000J0D01*
G01*
%TO.C,U1*%
X104690000Y-89500000D02*
X104690000Y-88850000D01*
X107810000Y-89500000D02*
X107810000Y-91175000D01*
X104690000Y-89500000D02*
X104690000Y-90150000D01*
X107810000Y-89500000D02*
X107810000Y-88850000D01*
%TO.C,C6*%
X111853733Y-93990000D02*
X112146267Y-93990000D01*
X111853733Y-95010000D02*
X112146267Y-95010000D01*
%TO.C,TP1*%
X108950000Y-96750000D02*
G75*
G03*
X108950000Y-96750000I-950000J0D01*
G01*
%TO.C,C1*%
X109510000Y-89103733D02*
X109510000Y-89396267D01*
X108490000Y-89103733D02*
X108490000Y-89396267D01*
%TO.C,TP3*%
X112950000Y-96750000D02*
G75*
G03*
X112950000Y-96750000I-950000J0D01*
G01*
%TO.C,C3*%
X106103733Y-93990000D02*
X106396267Y-93990000D01*
X106103733Y-95010000D02*
X106396267Y-95010000D01*
%TO.C,C5*%
X112051248Y-91690000D02*
X113473752Y-91690000D01*
X112051248Y-93510000D02*
X113473752Y-93510000D01*
%TO.C,C2*%
X106288748Y-91690000D02*
X107711252Y-91690000D01*
X106288748Y-93510000D02*
X107711252Y-93510000D01*
%TO.C,J1*%
X120800000Y-98020000D02*
X122155000Y-98020000D01*
X116905000Y-98400000D02*
X118475000Y-98400000D01*
X120800000Y-89520000D02*
X122155000Y-89520000D01*
X120800000Y-87860000D02*
X122155000Y-87860000D01*
X120800000Y-92940000D02*
X122155000Y-92940000D01*
X116905000Y-97580000D02*
X116905000Y-98400000D01*
X120800000Y-90400000D02*
X122155000Y-90400000D01*
X120800000Y-86980000D02*
X122155000Y-86980000D01*
X120800000Y-92060000D02*
X122155000Y-92060000D01*
X122155000Y-86980000D02*
X122155000Y-98020000D01*
X124895000Y-98020000D02*
X124895000Y-86975000D01*
X124895000Y-86975000D02*
X122155000Y-86975000D01*
X122130000Y-98025000D02*
X124870000Y-98025000D01*
X120800000Y-95480000D02*
X122155000Y-95480000D01*
X120800000Y-94600000D02*
X122155000Y-94600000D01*
X120800000Y-97140000D02*
X122155000Y-97140000D01*
%TO.C,C4*%
X114240000Y-89103733D02*
X114240000Y-89396267D01*
X115260000Y-89103733D02*
X115260000Y-89396267D01*
%TD*%
M02*
