%TF.GenerationSoftware,KiCad,Pcbnew,(6.0.0-rc1-461-ge5d6ec836f)*%
%TF.CreationDate,2022-01-23T00:53:45+08:00*%
%TF.ProjectId,usb_adapter,7573625f-6164-4617-9074-65722e6b6963,rev?*%
%TF.SameCoordinates,Original*%
%TF.FileFunction,Paste,Top*%
%TF.FilePolarity,Positive*%
%FSLAX46Y46*%
G04 Gerber Fmt 4.6, Leading zero omitted, Abs format (unit mm)*
G04 Created by KiCad (PCBNEW (6.0.0-rc1-461-ge5d6ec836f)) date 2022-01-23 00:53:45*
%MOMM*%
%LPD*%
G01*
G04 APERTURE LIST*
G04 Aperture macros list*
%AMRoundRect*
0 Rectangle with rounded corners*
0 $1 Rounding radius*
0 $2 $3 $4 $5 $6 $7 $8 $9 X,Y pos of 4 corners*
0 Add a 4 corners polygon primitive as box body*
4,1,4,$2,$3,$4,$5,$6,$7,$8,$9,$2,$3,0*
0 Add four circle primitives for the rounded corners*
1,1,$1+$1,$2,$3*
1,1,$1+$1,$4,$5*
1,1,$1+$1,$6,$7*
1,1,$1+$1,$8,$9*
0 Add four rect primitives between the rounded corners*
20,1,$1+$1,$2,$3,$4,$5,0*
20,1,$1+$1,$4,$5,$6,$7,0*
20,1,$1+$1,$6,$7,$8,$9,0*
20,1,$1+$1,$8,$9,$2,$3,0*%
G04 Aperture macros list end*
%ADD10R,1.500000X1.500000*%
%ADD11RoundRect,0.237500X-0.237500X0.250000X-0.237500X-0.250000X0.237500X-0.250000X0.237500X0.250000X0*%
%ADD12RoundRect,0.237500X0.237500X-0.250000X0.237500X0.250000X-0.237500X0.250000X-0.237500X-0.250000X0*%
%ADD13R,0.800000X0.300000*%
%ADD14R,0.250000X0.750000*%
%ADD15R,2.150000X0.400000*%
G04 APERTURE END LIST*
D10*
%TO.C,SW1*%
X120350000Y-89600000D03*
X128150000Y-89600000D03*
%TD*%
D11*
%TO.C,R2*%
X107742500Y-89237500D03*
X107742500Y-91062500D03*
%TD*%
D12*
%TO.C,R1*%
X109550000Y-91062500D03*
X109550000Y-89237500D03*
%TD*%
D13*
%TO.C,P1*%
X101395000Y-95370000D03*
X101395000Y-94870000D03*
X101395000Y-94370000D03*
X101395000Y-93870000D03*
X101395000Y-93370000D03*
X101395000Y-92870000D03*
X101395000Y-92370000D03*
X101395000Y-91870000D03*
X101395000Y-91370000D03*
X101395000Y-90870000D03*
X101395000Y-90370000D03*
X101395000Y-89870000D03*
X99795000Y-89620000D03*
X99795000Y-90120000D03*
X99795000Y-90620000D03*
X99795000Y-91120000D03*
X99795000Y-91620000D03*
X99795000Y-92120000D03*
X99795000Y-92620000D03*
X99795000Y-93120000D03*
X99795000Y-93620000D03*
X99795000Y-94120000D03*
X99795000Y-94620000D03*
X99795000Y-95120000D03*
%TD*%
D14*
%TO.C,U3*%
X113407500Y-88050000D03*
X112907500Y-88050000D03*
X112407500Y-88050000D03*
X111907500Y-88050000D03*
X111907500Y-91150000D03*
X112407500Y-91150000D03*
X112907500Y-91150000D03*
X113407500Y-91150000D03*
%TD*%
D15*
%TO.C,J2*%
X133805000Y-93805000D03*
X133805000Y-93155000D03*
X133805000Y-92505000D03*
X133805000Y-91855000D03*
X133805000Y-91205000D03*
%TD*%
M02*
