%TF.GenerationSoftware,KiCad,Pcbnew,(6.0.0-rc1-461-ge5d6ec836f)*%
%TF.CreationDate,2022-01-23T00:53:45+08:00*%
%TF.ProjectId,usb_adapter,7573625f-6164-4617-9074-65722e6b6963,rev?*%
%TF.SameCoordinates,Original*%
%TF.FileFunction,Copper,L4,Bot*%
%TF.FilePolarity,Positive*%
%FSLAX46Y46*%
G04 Gerber Fmt 4.6, Leading zero omitted, Abs format (unit mm)*
G04 Created by KiCad (PCBNEW (6.0.0-rc1-461-ge5d6ec836f)) date 2022-01-23 00:53:45*
%MOMM*%
%LPD*%
G01*
G04 APERTURE LIST*
G04 Aperture macros list*
%AMRoundRect*
0 Rectangle with rounded corners*
0 $1 Rounding radius*
0 $2 $3 $4 $5 $6 $7 $8 $9 X,Y pos of 4 corners*
0 Add a 4 corners polygon primitive as box body*
4,1,4,$2,$3,$4,$5,$6,$7,$8,$9,$2,$3,0*
0 Add four circle primitives for the rounded corners*
1,1,$1+$1,$2,$3*
1,1,$1+$1,$4,$5*
1,1,$1+$1,$6,$7*
1,1,$1+$1,$8,$9*
0 Add four rect primitives between the rounded corners*
20,1,$1+$1,$2,$3,$4,$5,0*
20,1,$1+$1,$4,$5,$6,$7,0*
20,1,$1+$1,$6,$7,$8,$9,0*
20,1,$1+$1,$8,$9,$2,$3,0*%
G04 Aperture macros list end*
%TA.AperFunction,ComponentPad*%
%ADD10O,2.000000X1.000000*%
%TD*%
%TA.AperFunction,ComponentPad*%
%ADD11O,1.800000X1.100000*%
%TD*%
%TA.AperFunction,SMDPad,CuDef*%
%ADD12RoundRect,0.150000X0.150000X-0.587500X0.150000X0.587500X-0.150000X0.587500X-0.150000X-0.587500X0*%
%TD*%
%TA.AperFunction,SMDPad,CuDef*%
%ADD13C,1.500000*%
%TD*%
%TA.AperFunction,SMDPad,CuDef*%
%ADD14RoundRect,0.237500X-0.300000X-0.237500X0.300000X-0.237500X0.300000X0.237500X-0.300000X0.237500X0*%
%TD*%
%TA.AperFunction,SMDPad,CuDef*%
%ADD15RoundRect,0.237500X-0.237500X0.300000X-0.237500X-0.300000X0.237500X-0.300000X0.237500X0.300000X0*%
%TD*%
%TA.AperFunction,SMDPad,CuDef*%
%ADD16RoundRect,0.250000X-0.412500X-0.650000X0.412500X-0.650000X0.412500X0.650000X-0.412500X0.650000X0*%
%TD*%
%TA.AperFunction,SMDPad,CuDef*%
%ADD17R,3.200000X1.000000*%
%TD*%
%TA.AperFunction,ViaPad*%
%ADD18C,0.450000*%
%TD*%
%TA.AperFunction,Conductor*%
%ADD19C,0.146812*%
%TD*%
G04 APERTURE END LIST*
D10*
%TO.P,P1,S1,SHIELD*%
%TO.N,GND*%
X101395000Y-88800000D03*
X101395000Y-96200000D03*
%TD*%
D11*
%TO.P,J2,6,Shield*%
%TO.N,GND*%
X136840000Y-88905000D03*
X133370000Y-88905000D03*
X136840000Y-96105000D03*
X133370000Y-96105000D03*
%TD*%
D12*
%TO.P,U2,1,GND*%
%TO.N,GND*%
X112950000Y-90437500D03*
%TO.P,U2,2,VO*%
%TO.N,+3V3*%
X111050000Y-90437500D03*
%TO.P,U2,3,VI*%
%TO.N,/VBUS*%
X112000000Y-88562500D03*
%TD*%
D13*
%TO.P,TP2,1,1*%
%TO.N,/RX_1V8*%
X105500000Y-96750000D03*
%TD*%
D12*
%TO.P,U1,1,GND*%
%TO.N,GND*%
X107200000Y-90437500D03*
%TO.P,U1,2,VO*%
%TO.N,+1V8*%
X105300000Y-90437500D03*
%TO.P,U1,3,VI*%
%TO.N,/VBUS*%
X106250000Y-88562500D03*
%TD*%
D14*
%TO.P,C6,1*%
%TO.N,+3V3*%
X111137500Y-94500000D03*
%TO.P,C6,2*%
%TO.N,GND*%
X112862500Y-94500000D03*
%TD*%
D13*
%TO.P,TP1,1,1*%
%TO.N,/TX_1V8*%
X108000000Y-96750000D03*
%TD*%
D15*
%TO.P,C1,1*%
%TO.N,/VBUS*%
X109000000Y-88387500D03*
%TO.P,C1,2*%
%TO.N,GND*%
X109000000Y-90112500D03*
%TD*%
D13*
%TO.P,TP3,1,1*%
%TO.N,/CC*%
X112000000Y-96750000D03*
%TD*%
D14*
%TO.P,C3,1*%
%TO.N,+1V8*%
X105387500Y-94500000D03*
%TO.P,C3,2*%
%TO.N,GND*%
X107112500Y-94500000D03*
%TD*%
D16*
%TO.P,C5,1*%
%TO.N,+3V3*%
X111200000Y-92600000D03*
%TO.P,C5,2*%
%TO.N,GND*%
X114325000Y-92600000D03*
%TD*%
%TO.P,C2,1*%
%TO.N,+1V8*%
X105437500Y-92600000D03*
%TO.P,C2,2*%
%TO.N,GND*%
X108562500Y-92600000D03*
%TD*%
D17*
%TO.P,J1,1,Pin_1*%
%TO.N,/TX_3V3*%
X118825000Y-97580000D03*
%TO.P,J1,2,Pin_2*%
%TO.N,/RX_3V3*%
X118825000Y-95040000D03*
%TO.P,J1,3,Pin_3*%
%TO.N,GND*%
X118825000Y-92500000D03*
%TO.P,J1,4,Pin_4*%
%TO.N,/CC*%
X118825000Y-89960000D03*
%TO.P,J1,5,Pin_5*%
%TO.N,GND*%
X118825000Y-87420000D03*
%TD*%
D15*
%TO.P,C4,1*%
%TO.N,/VBUS*%
X114750000Y-88387500D03*
%TO.P,C4,2*%
%TO.N,GND*%
X114750000Y-90112500D03*
%TD*%
D18*
%TO.N,/VBUS*%
X116300000Y-88600000D03*
X129850000Y-88100000D03*
X103500000Y-87500000D03*
X115300000Y-88600000D03*
X131100000Y-88700000D03*
X130450000Y-88700000D03*
X131100000Y-87450000D03*
X129850000Y-88700000D03*
X104250000Y-88500000D03*
X104750000Y-88500000D03*
X129850000Y-87450000D03*
X115800000Y-88600000D03*
X103750000Y-88500000D03*
X131100000Y-88100000D03*
X105000000Y-87500000D03*
X130450000Y-87450000D03*
X130450000Y-88100000D03*
X104000000Y-87500000D03*
X104500000Y-87500000D03*
%TO.N,GND*%
X132950000Y-87500000D03*
X133550000Y-87500000D03*
X109000000Y-90112500D03*
X107500000Y-93400000D03*
X121750000Y-89750000D03*
X114500000Y-93500000D03*
X132350000Y-87500000D03*
X113900000Y-93500000D03*
X112750000Y-90050000D03*
X138100000Y-90100000D03*
X126300000Y-90100000D03*
X113300000Y-92900000D03*
X108100000Y-92300000D03*
X123250000Y-91250000D03*
X106900000Y-93400000D03*
X135800000Y-90100000D03*
X113900000Y-92900000D03*
X108700000Y-92300000D03*
X108100000Y-93400000D03*
X122500000Y-89750000D03*
X114500000Y-92900000D03*
X108700000Y-93400000D03*
X137350000Y-90900000D03*
X123250000Y-89750000D03*
X136550000Y-90100000D03*
X106900000Y-92300000D03*
X135800000Y-90900000D03*
X113300000Y-93500000D03*
X133550000Y-90300000D03*
X124000000Y-89750000D03*
X112700000Y-92900000D03*
X132350000Y-90300000D03*
X121750000Y-91250000D03*
X122500000Y-91250000D03*
X132950000Y-90300000D03*
X138100000Y-90900000D03*
X137350000Y-90100000D03*
X136550000Y-90900000D03*
X112700000Y-93500000D03*
X124000000Y-91250000D03*
X107500000Y-92300000D03*
%TO.N,+1V8*%
X105400000Y-92350000D03*
%TO.N,+3V3*%
X111137500Y-92350000D03*
%TO.N,/TX_1V8*%
X109900000Y-92900000D03*
%TO.N,/RX_1V8*%
X100550000Y-92630000D03*
X103900000Y-91850000D03*
%TO.N,/TX_3V3*%
X114620000Y-91150000D03*
%TO.N,/RX_3V3*%
X113880000Y-87340000D03*
%TO.N,/CC*%
X104100000Y-94200000D03*
X114300000Y-94200000D03*
X102090000Y-93370000D03*
X118825000Y-89960000D03*
%TO.N,Net-(JP1-Pad1)*%
X102200000Y-94200000D03*
X104000000Y-90575000D03*
X102200000Y-91300000D03*
X104000000Y-89550000D03*
X100570000Y-91370000D03*
X103475000Y-89550000D03*
X103475000Y-90075000D03*
X104000000Y-90075000D03*
X103475000Y-90575000D03*
X100620000Y-93620000D03*
%TD*%
D19*
%TO.N,/RX_1V8*%
X103900000Y-91850000D02*
X104500000Y-92450000D01*
X104500000Y-92450000D02*
X104500000Y-95750000D01*
X104500000Y-95750000D02*
X105500000Y-96750000D01*
%TO.N,/TX_1V8*%
X109900000Y-92900000D02*
X109900000Y-94850000D01*
X109900000Y-94850000D02*
X108000000Y-96750000D01*
%TO.N,/CC*%
X112000000Y-96750000D02*
X113150000Y-96750000D01*
X113150000Y-96750000D02*
X114300000Y-95600000D01*
X114300000Y-95600000D02*
X114300000Y-94200000D01*
%TO.N,/RX_1V8*%
X100550000Y-92230000D02*
X100930000Y-91850000D01*
X100550000Y-92630000D02*
X100550000Y-92230000D01*
X100930000Y-91850000D02*
X103900000Y-91850000D01*
%TO.N,/TX_3V3*%
X115810000Y-96810000D02*
X116580000Y-97580000D01*
X115250000Y-91150000D02*
X115810000Y-91710000D01*
X116580000Y-97580000D02*
X118825000Y-97580000D01*
X114620000Y-91150000D02*
X115250000Y-91150000D01*
X115810000Y-91710000D02*
X115810000Y-96810000D01*
%TO.N,/RX_3V3*%
X116340000Y-92160000D02*
X116340000Y-94740000D01*
X113880000Y-87340000D02*
X116160000Y-87340000D01*
X116800000Y-91700000D02*
X116340000Y-92160000D01*
X116160000Y-87340000D02*
X116800000Y-87980000D01*
X116800000Y-87980000D02*
X116800000Y-91700000D01*
X116640000Y-95040000D02*
X118825000Y-95040000D01*
X116340000Y-94740000D02*
X116640000Y-95040000D01*
%TO.N,/CC*%
X102090000Y-93370000D02*
X103270000Y-93370000D01*
X103270000Y-93370000D02*
X104100000Y-94200000D01*
%TD*%
%TA.AperFunction,Conductor*%
%TO.N,GND*%
G36*
X102842132Y-86774002D02*
G01*
X102888625Y-86827658D01*
X102900011Y-86879989D01*
X102900273Y-89898986D01*
X102880277Y-89967109D01*
X102826625Y-90013606D01*
X102774273Y-90024997D01*
X101344401Y-90024999D01*
X100752190Y-90025000D01*
X100684069Y-90004998D01*
X100663095Y-89988095D01*
X100450000Y-89775000D01*
X99380000Y-89775000D01*
X99311879Y-89754998D01*
X99265386Y-89701342D01*
X99254000Y-89649000D01*
X99254000Y-88945722D01*
X100154963Y-88945722D01*
X100165513Y-89007119D01*
X100169619Y-89021070D01*
X100232729Y-89169387D01*
X100239929Y-89182012D01*
X100335467Y-89311833D01*
X100345381Y-89322464D01*
X100468225Y-89426828D01*
X100480313Y-89434890D01*
X100623871Y-89508195D01*
X100637496Y-89513262D01*
X100795716Y-89551977D01*
X100806775Y-89553660D01*
X100810321Y-89553880D01*
X100814199Y-89554000D01*
X101249885Y-89554000D01*
X101265124Y-89549525D01*
X101266329Y-89548135D01*
X101268000Y-89540452D01*
X101268000Y-89535885D01*
X101522000Y-89535885D01*
X101526475Y-89551124D01*
X101527865Y-89552329D01*
X101535548Y-89554000D01*
X101935363Y-89554000D01*
X101942667Y-89553575D01*
X102062366Y-89539620D01*
X102076519Y-89536275D01*
X102228030Y-89481279D01*
X102241029Y-89474769D01*
X102375826Y-89386392D01*
X102386978Y-89377068D01*
X102497828Y-89260053D01*
X102506540Y-89248408D01*
X102587494Y-89109035D01*
X102593292Y-89095700D01*
X102640014Y-88941433D01*
X102640292Y-88939887D01*
X102637982Y-88929730D01*
X102627073Y-88927000D01*
X101540115Y-88927000D01*
X101524876Y-88931475D01*
X101523671Y-88932865D01*
X101522000Y-88940548D01*
X101522000Y-89535885D01*
X101268000Y-89535885D01*
X101268000Y-88945115D01*
X101263525Y-88929876D01*
X101262135Y-88928671D01*
X101254452Y-88927000D01*
X100169861Y-88927000D01*
X100156899Y-88930806D01*
X100154963Y-88945722D01*
X99254000Y-88945722D01*
X99254000Y-88660113D01*
X100149708Y-88660113D01*
X100152018Y-88670270D01*
X100162927Y-88673000D01*
X101249885Y-88673000D01*
X101265124Y-88668525D01*
X101266329Y-88667135D01*
X101268000Y-88659452D01*
X101268000Y-88654885D01*
X101522000Y-88654885D01*
X101526475Y-88670124D01*
X101527865Y-88671329D01*
X101535548Y-88673000D01*
X102620139Y-88673000D01*
X102633101Y-88669194D01*
X102635037Y-88654278D01*
X102624487Y-88592881D01*
X102620381Y-88578930D01*
X102557271Y-88430613D01*
X102550071Y-88417988D01*
X102454533Y-88288167D01*
X102444619Y-88277536D01*
X102321775Y-88173172D01*
X102309687Y-88165110D01*
X102166129Y-88091805D01*
X102152504Y-88086738D01*
X101994284Y-88048023D01*
X101983225Y-88046340D01*
X101979679Y-88046120D01*
X101975801Y-88046000D01*
X101540115Y-88046000D01*
X101524876Y-88050475D01*
X101523671Y-88051865D01*
X101522000Y-88059548D01*
X101522000Y-88654885D01*
X101268000Y-88654885D01*
X101268000Y-88064115D01*
X101263525Y-88048876D01*
X101262135Y-88047671D01*
X101254452Y-88046000D01*
X100854637Y-88046000D01*
X100847333Y-88046425D01*
X100727634Y-88060380D01*
X100713481Y-88063725D01*
X100561970Y-88118721D01*
X100548971Y-88125231D01*
X100414174Y-88213608D01*
X100403022Y-88222932D01*
X100292172Y-88339947D01*
X100283460Y-88351592D01*
X100202506Y-88490965D01*
X100196708Y-88504300D01*
X100149986Y-88658567D01*
X100149708Y-88660113D01*
X99254000Y-88660113D01*
X99254000Y-88055682D01*
X99274002Y-87987561D01*
X99299337Y-87958886D01*
X100710155Y-86783204D01*
X100775292Y-86754960D01*
X100790818Y-86754000D01*
X102774011Y-86754000D01*
X102842132Y-86774002D01*
G37*
%TD.AperFunction*%
%TD*%
%TA.AperFunction,Conductor*%
%TO.N,GND*%
G36*
X100490972Y-94995002D02*
G01*
X100511895Y-95011853D01*
X100725287Y-95225000D01*
X100735948Y-95225000D01*
X100745645Y-95230288D01*
X100795875Y-95280462D01*
X100811006Y-95349827D01*
X100786233Y-95416362D01*
X100729422Y-95458941D01*
X100714300Y-95463532D01*
X100713482Y-95463725D01*
X100561970Y-95518721D01*
X100548971Y-95525231D01*
X100414174Y-95613608D01*
X100403022Y-95622932D01*
X100292172Y-95739947D01*
X100283460Y-95751592D01*
X100202506Y-95890965D01*
X100196708Y-95904300D01*
X100149986Y-96058567D01*
X100149708Y-96060113D01*
X100152018Y-96070270D01*
X100162927Y-96073000D01*
X102620139Y-96073000D01*
X102633101Y-96069194D01*
X102635037Y-96054278D01*
X102624487Y-95992881D01*
X102620381Y-95978930D01*
X102557271Y-95830613D01*
X102550071Y-95817988D01*
X102454533Y-95688167D01*
X102444619Y-95677536D01*
X102321775Y-95573172D01*
X102309687Y-95565110D01*
X102166129Y-95491805D01*
X102152504Y-95486738D01*
X102097949Y-95473389D01*
X102036534Y-95437769D01*
X102004127Y-95374600D01*
X102011016Y-95303939D01*
X102055013Y-95248219D01*
X102127897Y-95225000D01*
X102774000Y-95225000D01*
X102842121Y-95245002D01*
X102888614Y-95298658D01*
X102900000Y-95351000D01*
X102900000Y-98120000D01*
X102879998Y-98188121D01*
X102826342Y-98234614D01*
X102774000Y-98246000D01*
X100798190Y-98246000D01*
X100730069Y-98225998D01*
X100709095Y-98209095D01*
X99290905Y-96790905D01*
X99256879Y-96728593D01*
X99254000Y-96701810D01*
X99254000Y-96345722D01*
X100154963Y-96345722D01*
X100165513Y-96407119D01*
X100169619Y-96421070D01*
X100232729Y-96569387D01*
X100239929Y-96582012D01*
X100335467Y-96711833D01*
X100345381Y-96722464D01*
X100468225Y-96826828D01*
X100480313Y-96834890D01*
X100623871Y-96908195D01*
X100637496Y-96913262D01*
X100795716Y-96951977D01*
X100806775Y-96953660D01*
X100810321Y-96953880D01*
X100814199Y-96954000D01*
X101249885Y-96954000D01*
X101265124Y-96949525D01*
X101266329Y-96948135D01*
X101268000Y-96940452D01*
X101268000Y-96935885D01*
X101522000Y-96935885D01*
X101526475Y-96951124D01*
X101527865Y-96952329D01*
X101535548Y-96954000D01*
X101935363Y-96954000D01*
X101942667Y-96953575D01*
X102062366Y-96939620D01*
X102076519Y-96936275D01*
X102228030Y-96881279D01*
X102241029Y-96874769D01*
X102375826Y-96786392D01*
X102386978Y-96777068D01*
X102497828Y-96660053D01*
X102506540Y-96648408D01*
X102587494Y-96509035D01*
X102593292Y-96495700D01*
X102640014Y-96341433D01*
X102640292Y-96339887D01*
X102637982Y-96329730D01*
X102627073Y-96327000D01*
X101540115Y-96327000D01*
X101524876Y-96331475D01*
X101523671Y-96332865D01*
X101522000Y-96340548D01*
X101522000Y-96935885D01*
X101268000Y-96935885D01*
X101268000Y-96345115D01*
X101263525Y-96329876D01*
X101262135Y-96328671D01*
X101254452Y-96327000D01*
X100169861Y-96327000D01*
X100156899Y-96330806D01*
X100154963Y-96345722D01*
X99254000Y-96345722D01*
X99254000Y-95101000D01*
X99274002Y-95032879D01*
X99327658Y-94986386D01*
X99380000Y-94975000D01*
X100422851Y-94975000D01*
X100490972Y-94995002D01*
G37*
%TD.AperFunction*%
%TD*%
%TA.AperFunction,Conductor*%
%TO.N,GND*%
G36*
X137440605Y-86774002D02*
G01*
X137466139Y-86795710D01*
X138713655Y-88181839D01*
X138744358Y-88245854D01*
X138746000Y-88266129D01*
X138746000Y-91199850D01*
X138725998Y-91267971D01*
X138672342Y-91314464D01*
X138619892Y-91325850D01*
X133205381Y-91321115D01*
X132055890Y-91320110D01*
X131987787Y-91300048D01*
X131941341Y-91246352D01*
X131930000Y-91194110D01*
X131930000Y-90505000D01*
X134155931Y-90505000D01*
X134174129Y-90643227D01*
X134227483Y-90772034D01*
X134312356Y-90882644D01*
X134422965Y-90967517D01*
X134551773Y-91020871D01*
X134690000Y-91039069D01*
X134698188Y-91037991D01*
X134820039Y-91021949D01*
X134828227Y-91020871D01*
X134957035Y-90967517D01*
X135067644Y-90882644D01*
X135152517Y-90772034D01*
X135205871Y-90643227D01*
X135224069Y-90505000D01*
X135205871Y-90366773D01*
X135152517Y-90237966D01*
X135067644Y-90127356D01*
X134957035Y-90042483D01*
X134828227Y-89989129D01*
X134690000Y-89970931D01*
X134551773Y-89989129D01*
X134422966Y-90042483D01*
X134312356Y-90127356D01*
X134227483Y-90237966D01*
X134174129Y-90366773D01*
X134155931Y-90505000D01*
X131930000Y-90505000D01*
X131930000Y-89048798D01*
X132226640Y-89048798D01*
X132229051Y-89071735D01*
X132232056Y-89085406D01*
X132285646Y-89242825D01*
X132291607Y-89255491D01*
X132378740Y-89397124D01*
X132387360Y-89408158D01*
X132503701Y-89526961D01*
X132514560Y-89535818D01*
X132654324Y-89625889D01*
X132666877Y-89632121D01*
X132823127Y-89688991D01*
X132836742Y-89692284D01*
X132965130Y-89708503D01*
X132973020Y-89709000D01*
X133224885Y-89709000D01*
X133240124Y-89704525D01*
X133241329Y-89703135D01*
X133243000Y-89695452D01*
X133243000Y-89690885D01*
X133497000Y-89690885D01*
X133501475Y-89706124D01*
X133502865Y-89707329D01*
X133510548Y-89709000D01*
X133761828Y-89709000D01*
X133768852Y-89708607D01*
X133892253Y-89694766D01*
X133905906Y-89691664D01*
X134062938Y-89636979D01*
X134075571Y-89630926D01*
X134216589Y-89542809D01*
X134227561Y-89534112D01*
X134345555Y-89416940D01*
X134354327Y-89406029D01*
X134443425Y-89265634D01*
X134449568Y-89253038D01*
X134505348Y-89096391D01*
X134508544Y-89082765D01*
X134512452Y-89049989D01*
X134512251Y-89048798D01*
X135696640Y-89048798D01*
X135699051Y-89071735D01*
X135702056Y-89085406D01*
X135755646Y-89242825D01*
X135761607Y-89255491D01*
X135848740Y-89397124D01*
X135857360Y-89408158D01*
X135973701Y-89526961D01*
X135984560Y-89535818D01*
X136124324Y-89625889D01*
X136136877Y-89632121D01*
X136293127Y-89688991D01*
X136306742Y-89692284D01*
X136435130Y-89708503D01*
X136443020Y-89709000D01*
X136694885Y-89709000D01*
X136710124Y-89704525D01*
X136711329Y-89703135D01*
X136713000Y-89695452D01*
X136713000Y-89690885D01*
X136967000Y-89690885D01*
X136971475Y-89706124D01*
X136972865Y-89707329D01*
X136980548Y-89709000D01*
X137231828Y-89709000D01*
X137238852Y-89708607D01*
X137362253Y-89694766D01*
X137375906Y-89691664D01*
X137532938Y-89636979D01*
X137545571Y-89630926D01*
X137686589Y-89542809D01*
X137697561Y-89534112D01*
X137815555Y-89416940D01*
X137824327Y-89406029D01*
X137913425Y-89265634D01*
X137919568Y-89253038D01*
X137975348Y-89096391D01*
X137978544Y-89082765D01*
X137982452Y-89049989D01*
X137980025Y-89035582D01*
X137967257Y-89032000D01*
X136985115Y-89032000D01*
X136969876Y-89036475D01*
X136968671Y-89037865D01*
X136967000Y-89045548D01*
X136967000Y-89690885D01*
X136713000Y-89690885D01*
X136713000Y-89050115D01*
X136708525Y-89034876D01*
X136707135Y-89033671D01*
X136699452Y-89032000D01*
X135712990Y-89032000D01*
X135698698Y-89036197D01*
X135696640Y-89048798D01*
X134512251Y-89048798D01*
X134510025Y-89035582D01*
X134497257Y-89032000D01*
X133515115Y-89032000D01*
X133499876Y-89036475D01*
X133498671Y-89037865D01*
X133497000Y-89045548D01*
X133497000Y-89690885D01*
X133243000Y-89690885D01*
X133243000Y-89050115D01*
X133238525Y-89034876D01*
X133237135Y-89033671D01*
X133229452Y-89032000D01*
X132242990Y-89032000D01*
X132228698Y-89036197D01*
X132226640Y-89048798D01*
X131930000Y-89048798D01*
X131930000Y-88760011D01*
X132227548Y-88760011D01*
X132229975Y-88774418D01*
X132242743Y-88778000D01*
X133224885Y-88778000D01*
X133240124Y-88773525D01*
X133241329Y-88772135D01*
X133243000Y-88764452D01*
X133243000Y-88759885D01*
X133497000Y-88759885D01*
X133501475Y-88775124D01*
X133502865Y-88776329D01*
X133510548Y-88778000D01*
X134497010Y-88778000D01*
X134511302Y-88773803D01*
X134513360Y-88761202D01*
X134513235Y-88760011D01*
X135697548Y-88760011D01*
X135699975Y-88774418D01*
X135712743Y-88778000D01*
X136694885Y-88778000D01*
X136710124Y-88773525D01*
X136711329Y-88772135D01*
X136713000Y-88764452D01*
X136713000Y-88759885D01*
X136967000Y-88759885D01*
X136971475Y-88775124D01*
X136972865Y-88776329D01*
X136980548Y-88778000D01*
X137967010Y-88778000D01*
X137981302Y-88773803D01*
X137983360Y-88761202D01*
X137980949Y-88738265D01*
X137977944Y-88724594D01*
X137924354Y-88567175D01*
X137918393Y-88554509D01*
X137831260Y-88412876D01*
X137822640Y-88401842D01*
X137706299Y-88283039D01*
X137695440Y-88274182D01*
X137555676Y-88184111D01*
X137543123Y-88177879D01*
X137386873Y-88121009D01*
X137373258Y-88117716D01*
X137244870Y-88101497D01*
X137236980Y-88101000D01*
X136985115Y-88101000D01*
X136969876Y-88105475D01*
X136968671Y-88106865D01*
X136967000Y-88114548D01*
X136967000Y-88759885D01*
X136713000Y-88759885D01*
X136713000Y-88119115D01*
X136708525Y-88103876D01*
X136707135Y-88102671D01*
X136699452Y-88101000D01*
X136448172Y-88101000D01*
X136441148Y-88101393D01*
X136317747Y-88115234D01*
X136304094Y-88118336D01*
X136147062Y-88173021D01*
X136134429Y-88179074D01*
X135993411Y-88267191D01*
X135982439Y-88275888D01*
X135864445Y-88393060D01*
X135855673Y-88403971D01*
X135766575Y-88544366D01*
X135760432Y-88556962D01*
X135704652Y-88713609D01*
X135701456Y-88727235D01*
X135697548Y-88760011D01*
X134513235Y-88760011D01*
X134510949Y-88738265D01*
X134507944Y-88724594D01*
X134454354Y-88567175D01*
X134448393Y-88554509D01*
X134361260Y-88412876D01*
X134352640Y-88401842D01*
X134236299Y-88283039D01*
X134225440Y-88274182D01*
X134085676Y-88184111D01*
X134073123Y-88177879D01*
X133916873Y-88121009D01*
X133903258Y-88117716D01*
X133774870Y-88101497D01*
X133766980Y-88101000D01*
X133515115Y-88101000D01*
X133499876Y-88105475D01*
X133498671Y-88106865D01*
X133497000Y-88114548D01*
X133497000Y-88759885D01*
X133243000Y-88759885D01*
X133243000Y-88119115D01*
X133238525Y-88103876D01*
X133237135Y-88102671D01*
X133229452Y-88101000D01*
X132978172Y-88101000D01*
X132971148Y-88101393D01*
X132847747Y-88115234D01*
X132834094Y-88118336D01*
X132677062Y-88173021D01*
X132664429Y-88179074D01*
X132523411Y-88267191D01*
X132512439Y-88275888D01*
X132394445Y-88393060D01*
X132385673Y-88403971D01*
X132296575Y-88544366D01*
X132290432Y-88556962D01*
X132234652Y-88713609D01*
X132231456Y-88727235D01*
X132227548Y-88760011D01*
X131930000Y-88760011D01*
X131930000Y-86880000D01*
X131950002Y-86811879D01*
X132003658Y-86765386D01*
X132056000Y-86754000D01*
X137372484Y-86754000D01*
X137440605Y-86774002D01*
G37*
%TD.AperFunction*%
%TD*%
%TA.AperFunction,Conductor*%
%TO.N,GND*%
G36*
X109692121Y-89220002D02*
G01*
X109738614Y-89273658D01*
X109750000Y-89326000D01*
X109750000Y-92358146D01*
X109729998Y-92426267D01*
X109691237Y-92464707D01*
X109586031Y-92531087D01*
X109495109Y-92634036D01*
X109436736Y-92758366D01*
X109435356Y-92767232D01*
X109416986Y-92885209D01*
X109416986Y-92885213D01*
X109415605Y-92894082D01*
X109416769Y-92902984D01*
X109416769Y-92902987D01*
X109424509Y-92962177D01*
X109433414Y-93030273D01*
X109488732Y-93155992D01*
X109494511Y-93162867D01*
X109542545Y-93220011D01*
X109571066Y-93285027D01*
X109572094Y-93301086D01*
X109572094Y-94661987D01*
X109552092Y-94730108D01*
X109535189Y-94751082D01*
X109273176Y-95013095D01*
X109210864Y-95047121D01*
X109184081Y-95050000D01*
X106576000Y-95050000D01*
X106507879Y-95029998D01*
X106461386Y-94976342D01*
X106450000Y-94924000D01*
X106450000Y-90058620D01*
X106470002Y-89990499D01*
X106494839Y-89962241D01*
X107364825Y-89229621D01*
X107429815Y-89201042D01*
X107445986Y-89200000D01*
X109624000Y-89200000D01*
X109692121Y-89220002D01*
G37*
%TD.AperFunction*%
%TD*%
%TA.AperFunction,Conductor*%
%TO.N,+3V3*%
G36*
X110983090Y-89273358D02*
G01*
X111746731Y-89812398D01*
X111790848Y-89868022D01*
X111800068Y-89915204D01*
X111805230Y-94888696D01*
X111785299Y-94956838D01*
X111731691Y-95003386D01*
X111679602Y-95014826D01*
X110694392Y-95017736D01*
X110432659Y-95018509D01*
X110364480Y-94998709D01*
X110317828Y-94945191D01*
X110306291Y-94891534D01*
X110319688Y-93161528D01*
X110332292Y-93107566D01*
X110357585Y-93055362D01*
X110357585Y-93055361D01*
X110361499Y-93047283D01*
X110384286Y-92911836D01*
X110384431Y-92900000D01*
X110383584Y-92894082D01*
X110366232Y-92772923D01*
X110366232Y-92772921D01*
X110364959Y-92764036D01*
X110334984Y-92698109D01*
X110323688Y-92644981D01*
X110348983Y-89378535D01*
X110369512Y-89310571D01*
X110423526Y-89264495D01*
X110474049Y-89253514D01*
X110900933Y-89250362D01*
X110909499Y-89250299D01*
X110983090Y-89273358D01*
G37*
%TD.AperFunction*%
%TD*%
%TA.AperFunction,Conductor*%
%TO.N,GND*%
G36*
X124842121Y-86920002D02*
G01*
X124888614Y-86973658D01*
X124900000Y-87026000D01*
X124900000Y-97974000D01*
X124879998Y-98042121D01*
X124826342Y-98088614D01*
X124774000Y-98100000D01*
X120805500Y-98100000D01*
X120737379Y-98079998D01*
X120690886Y-98026342D01*
X120679500Y-97974000D01*
X120679499Y-97061123D01*
X120679499Y-97054934D01*
X120664734Y-96980699D01*
X120608484Y-96896516D01*
X120524301Y-96840266D01*
X120450067Y-96825500D01*
X120298021Y-96825500D01*
X117326000Y-96825501D01*
X117257879Y-96805499D01*
X117211386Y-96751843D01*
X117200000Y-96699501D01*
X117200000Y-95920500D01*
X117220002Y-95852379D01*
X117273658Y-95805886D01*
X117326000Y-95794500D01*
X120297974Y-95794499D01*
X120450066Y-95794499D01*
X120485818Y-95787388D01*
X120512126Y-95782156D01*
X120512128Y-95782155D01*
X120524301Y-95779734D01*
X120534621Y-95772839D01*
X120534622Y-95772838D01*
X120598168Y-95730377D01*
X120608484Y-95723484D01*
X120664734Y-95639301D01*
X120679500Y-95565067D01*
X120679499Y-94514934D01*
X120664734Y-94440699D01*
X120608484Y-94356516D01*
X120524301Y-94300266D01*
X120450067Y-94285500D01*
X120298021Y-94285500D01*
X117326000Y-94285501D01*
X117257879Y-94265499D01*
X117211386Y-94211843D01*
X117200000Y-94159501D01*
X117200000Y-90840500D01*
X117220002Y-90772379D01*
X117273658Y-90725886D01*
X117326000Y-90714500D01*
X120297974Y-90714499D01*
X120450066Y-90714499D01*
X120485818Y-90707388D01*
X120512126Y-90702156D01*
X120512128Y-90702155D01*
X120524301Y-90699734D01*
X120534621Y-90692839D01*
X120534622Y-90692838D01*
X120598168Y-90650377D01*
X120608484Y-90643484D01*
X120664734Y-90559301D01*
X120679500Y-90485067D01*
X120679499Y-89434934D01*
X120664734Y-89360699D01*
X120608484Y-89276516D01*
X120524301Y-89220266D01*
X120450067Y-89205500D01*
X120298021Y-89205500D01*
X117326000Y-89205501D01*
X117257879Y-89185499D01*
X117211386Y-89131843D01*
X117200000Y-89079501D01*
X117200000Y-87026000D01*
X117220002Y-86957879D01*
X117273658Y-86911386D01*
X117326000Y-86900000D01*
X124774000Y-86900000D01*
X124842121Y-86920002D01*
G37*
%TD.AperFunction*%
%TD*%
%TA.AperFunction,Conductor*%
%TO.N,+1V8*%
G36*
X105233090Y-89273358D02*
G01*
X105996730Y-89812398D01*
X106040848Y-89868023D01*
X106050068Y-89915204D01*
X106055292Y-94910644D01*
X106035361Y-94978786D01*
X105981754Y-95025335D01*
X105929664Y-95036775D01*
X105100765Y-95039223D01*
X104954278Y-95039656D01*
X104886099Y-95019856D01*
X104839447Y-94966338D01*
X104827906Y-94913657D01*
X104827906Y-92469805D01*
X104828386Y-92458823D01*
X104830736Y-92431962D01*
X104831697Y-92420980D01*
X104828844Y-92410334D01*
X104828844Y-92410329D01*
X104821862Y-92384273D01*
X104819483Y-92373544D01*
X104814798Y-92346974D01*
X104814798Y-92346973D01*
X104812884Y-92336120D01*
X104807373Y-92326574D01*
X104806145Y-92323201D01*
X104804623Y-92319936D01*
X104801768Y-92309283D01*
X104779960Y-92278137D01*
X104774069Y-92268891D01*
X104755065Y-92235975D01*
X104725953Y-92211547D01*
X104717862Y-92204132D01*
X104615603Y-92101873D01*
X104581577Y-92039561D01*
X104578702Y-92011807D01*
X104598988Y-89378540D01*
X104619514Y-89310576D01*
X104673526Y-89264498D01*
X104724054Y-89253514D01*
X105152129Y-89250353D01*
X105159499Y-89250299D01*
X105233090Y-89273358D01*
G37*
%TD.AperFunction*%
%TD*%
%TA.AperFunction,Conductor*%
%TO.N,GND*%
G36*
X115442121Y-89220002D02*
G01*
X115488614Y-89273658D01*
X115500000Y-89326000D01*
X115500000Y-90710956D01*
X115479998Y-90779077D01*
X115426342Y-90825570D01*
X115352121Y-90835042D01*
X115326458Y-90830517D01*
X115315727Y-90828138D01*
X115289671Y-90821156D01*
X115289666Y-90821156D01*
X115279020Y-90818303D01*
X115268036Y-90819264D01*
X115268035Y-90819264D01*
X115241177Y-90821614D01*
X115230195Y-90822094D01*
X115026330Y-90822094D01*
X114958209Y-90802092D01*
X114944073Y-90791473D01*
X114938453Y-90784951D01*
X114823196Y-90710244D01*
X114691603Y-90670890D01*
X114682627Y-90670835D01*
X114682626Y-90670835D01*
X114625080Y-90670484D01*
X114554255Y-90670051D01*
X114422192Y-90707795D01*
X114414605Y-90712582D01*
X114414603Y-90712583D01*
X114352850Y-90751546D01*
X114306031Y-90781087D01*
X114300088Y-90787816D01*
X114269815Y-90822094D01*
X114215109Y-90884036D01*
X114156736Y-91008366D01*
X114155356Y-91017232D01*
X114136986Y-91135209D01*
X114136986Y-91135213D01*
X114135605Y-91144082D01*
X114153414Y-91280273D01*
X114208732Y-91405992D01*
X114297111Y-91511132D01*
X114411447Y-91587240D01*
X114542549Y-91628199D01*
X114679876Y-91630716D01*
X114689109Y-91628199D01*
X114803727Y-91596951D01*
X114812391Y-91594589D01*
X114929439Y-91522721D01*
X114935462Y-91516066D01*
X114942370Y-91510332D01*
X114944004Y-91512300D01*
X114993028Y-91482271D01*
X115025905Y-91477906D01*
X115061987Y-91477906D01*
X115130108Y-91497908D01*
X115151082Y-91514811D01*
X115445189Y-91808918D01*
X115479215Y-91871230D01*
X115482094Y-91898013D01*
X115482094Y-94924000D01*
X115462092Y-94992121D01*
X115408436Y-95038614D01*
X115356094Y-95050000D01*
X114753906Y-95050000D01*
X114685785Y-95029998D01*
X114639292Y-94976342D01*
X114627906Y-94924000D01*
X114627906Y-94600875D01*
X114647908Y-94532754D01*
X114660491Y-94516320D01*
X114695584Y-94477550D01*
X114695585Y-94477549D01*
X114701612Y-94470890D01*
X114761499Y-94347283D01*
X114784286Y-94211836D01*
X114784431Y-94200000D01*
X114783584Y-94194082D01*
X114766232Y-94072923D01*
X114766232Y-94072921D01*
X114764959Y-94064036D01*
X114708110Y-93939003D01*
X114618453Y-93834951D01*
X114503196Y-93760244D01*
X114371603Y-93720890D01*
X114362627Y-93720835D01*
X114362626Y-93720835D01*
X114305080Y-93720484D01*
X114234255Y-93720051D01*
X114102192Y-93757795D01*
X114094605Y-93762582D01*
X114094603Y-93762583D01*
X114032850Y-93801546D01*
X113986031Y-93831087D01*
X113895109Y-93934036D01*
X113836736Y-94058366D01*
X113827027Y-94120724D01*
X113816986Y-94185209D01*
X113816986Y-94185213D01*
X113815605Y-94194082D01*
X113816769Y-94202984D01*
X113816769Y-94202987D01*
X113818554Y-94216633D01*
X113833414Y-94330273D01*
X113888732Y-94455992D01*
X113894511Y-94462867D01*
X113942545Y-94520011D01*
X113971066Y-94585027D01*
X113972094Y-94601086D01*
X113972094Y-94924000D01*
X113952092Y-94992121D01*
X113898436Y-95038614D01*
X113846094Y-95050000D01*
X112326000Y-95050000D01*
X112257879Y-95029998D01*
X112211386Y-94976342D01*
X112200000Y-94924000D01*
X112200000Y-90156116D01*
X112220002Y-90087995D01*
X112241710Y-90062461D01*
X113164061Y-89232345D01*
X113228076Y-89201642D01*
X113248351Y-89200000D01*
X115374000Y-89200000D01*
X115442121Y-89220002D01*
G37*
%TD.AperFunction*%
%TD*%
%TA.AperFunction,Conductor*%
%TO.N,/VBUS*%
G36*
X113548734Y-86774002D02*
G01*
X113595227Y-86827658D01*
X113605331Y-86897932D01*
X113575837Y-86962512D01*
X113569209Y-86969082D01*
X113566031Y-86971087D01*
X113475109Y-87074036D01*
X113416736Y-87198366D01*
X113415356Y-87207232D01*
X113396986Y-87325209D01*
X113396986Y-87325213D01*
X113395605Y-87334082D01*
X113413414Y-87470273D01*
X113468732Y-87595992D01*
X113557111Y-87701132D01*
X113671447Y-87777240D01*
X113802549Y-87818199D01*
X113939876Y-87820716D01*
X113949109Y-87818199D01*
X114063727Y-87786951D01*
X114072391Y-87784589D01*
X114189439Y-87712721D01*
X114195462Y-87706066D01*
X114202370Y-87700332D01*
X114204004Y-87702300D01*
X114253028Y-87672271D01*
X114285905Y-87667906D01*
X115971987Y-87667906D01*
X116040108Y-87687908D01*
X116061082Y-87704811D01*
X116435189Y-88078918D01*
X116469215Y-88141230D01*
X116472094Y-88168013D01*
X116472094Y-88724000D01*
X116452092Y-88792121D01*
X116398436Y-88838614D01*
X116346094Y-88850000D01*
X113050000Y-88850000D01*
X112984166Y-88910348D01*
X112486130Y-89366881D01*
X112422399Y-89398168D01*
X112400989Y-89400000D01*
X111790378Y-89400000D01*
X111717142Y-89376530D01*
X111703633Y-89366881D01*
X111050000Y-88900000D01*
X107200000Y-88900000D01*
X106686431Y-89366881D01*
X106686045Y-89367232D01*
X106622185Y-89398255D01*
X106601288Y-89400000D01*
X105988149Y-89400000D01*
X105918257Y-89378838D01*
X105215523Y-88910348D01*
X105215521Y-88910347D01*
X105200000Y-88900000D01*
X103326000Y-88900000D01*
X103257879Y-88879998D01*
X103211386Y-88826342D01*
X103200000Y-88774000D01*
X103200000Y-86880000D01*
X103220002Y-86811879D01*
X103273658Y-86765386D01*
X103326000Y-86754000D01*
X113480613Y-86754000D01*
X113548734Y-86774002D01*
G37*
%TD.AperFunction*%
%TD*%
M02*
