M48
; DRILL file {KiCad (6.0.0-rc1-461-ge5d6ec836f)} date 2022 January 23, Sunday 00:53:38
; FORMAT={-:-/ absolute / metric / decimal}
; #@! TF.CreationDate,2022-01-23T00:53:38+08:00
; #@! TF.GenerationSoftware,Kicad,Pcbnew,(6.0.0-rc1-461-ge5d6ec836f)
; #@! TF.FileFunction,Plated,1,4,PTH
FMAT,2
METRIC
; #@! TA.AperFunction,Plated,PTH,ViaDrill
T1C0.200
; #@! TA.AperFunction,Plated,PTH,ComponentDrill
T2C0.500
%
G90
G05
T1
X100.55Y-92.63
X100.57Y-91.37
X100.62Y-93.62
X102.09Y-93.37
X102.2Y-91.3
X102.2Y-94.2
X103.475Y-89.55
X103.475Y-90.075
X103.475Y-90.575
X103.5Y-87.5
X103.75Y-88.5
X103.9Y-91.85
X104.0Y-87.5
X104.0Y-89.55
X104.0Y-90.075
X104.0Y-90.575
X104.1Y-94.2
X104.25Y-88.5
X104.5Y-87.5
X104.75Y-88.5
X105.0Y-87.5
X105.4Y-92.35
X106.9Y-92.3
X106.9Y-93.4
X107.5Y-92.3
X107.5Y-93.4
X108.1Y-92.3
X108.1Y-93.4
X108.7Y-92.3
X108.7Y-93.4
X109.0Y-90.112
X109.9Y-92.9
X111.137Y-92.35
X112.7Y-92.9
X112.7Y-93.5
X112.75Y-90.05
X113.3Y-92.9
X113.3Y-93.5
X113.88Y-87.34
X113.9Y-92.9
X113.9Y-93.5
X114.3Y-94.2
X114.5Y-92.9
X114.5Y-93.5
X114.62Y-91.15
X115.3Y-88.6
X115.8Y-88.6
X116.3Y-88.6
X118.825Y-89.96
X121.75Y-89.75
X121.75Y-91.25
X122.5Y-89.75
X122.5Y-91.25
X123.25Y-89.75
X123.25Y-91.25
X124.0Y-89.75
X124.0Y-91.25
X126.3Y-90.1
X129.85Y-87.45
X129.85Y-88.1
X129.85Y-88.7
X130.45Y-87.45
X130.45Y-88.1
X130.45Y-88.7
X131.1Y-87.45
X131.1Y-88.1
X131.1Y-88.7
X132.35Y-87.5
X132.35Y-90.3
X132.95Y-87.5
X132.95Y-90.3
X133.55Y-87.5
X133.55Y-90.3
X135.8Y-90.1
X135.8Y-90.9
X136.55Y-90.1
X136.55Y-90.9
X137.35Y-90.1
X137.35Y-90.9
X138.1Y-90.1
X138.1Y-90.9
T2
X101.895Y-88.8G85X100.895Y-88.8
G05
X101.895Y-96.2G85X100.895Y-96.2
G05
X133.02Y-88.905G85X133.72Y-88.905
G05
X133.02Y-96.105G85X133.72Y-96.105
G05
X136.49Y-88.905G85X137.19Y-88.905
G05
X136.49Y-96.105G85X137.19Y-96.105
G05
T0
M30
